<?xml version="1.0" standalone="no"?>
<!DOCTYPE svg PUBLIC "-//W3C//DTD SVG 1.1//EN" "http://www.w3.org/Graphics/SVG/1.1/DTD/svg11.dtd" >
<svg xmlns="http://www.w3.org/2000/svg">
<metadata>Generated by IcoMoon</metadata>
<defs>
<font id="essential-icons_Creative-Nerds" horiz-adv-x="1024">
<font-face units-per-em="1024" ascent="960" descent="-64" />
<missing-glyph horiz-adv-x="1024" />
<glyph unicode="&#x20;" horiz-adv-x="512" d="" />
<glyph unicode="&#xe900;" glyph-name="cn-reload1" d="M293.556 406.374l97.921 97.921c25.932 25.935 25.932 67.982 0 93.917-25.938 25.932-67.979 25.932-93.917 0l-25.696-25.693v135.244c0 5.381 4.387 9.76 9.78 9.76h460.744c5.373 0 9.748-4.379 9.748-9.76v-76.267c0-36.674 29.729-66.406 66.406-66.406 36.674 0 66.406 29.729 66.406 66.406v76.267c0 78.615-63.949 142.569-142.558 142.569h-460.746c-78.623 0-142.586-63.955-142.586-142.569v-135.244l-25.693 25.693c-25.938 25.932-67.979 25.932-93.917 0-25.932-25.935-25.932-67.982 0-93.917l97.921-97.921c23.533-23.53 54.817-36.487 88.095-36.487 33.281 0 64.568 12.96 88.092 36.487zM1004.549 391.711l-97.921 97.921c-23.533 23.53-54.817 36.487-88.098 36.487-33.278 0-64.562-12.96-88.086-36.49l-97.915-97.921c-25.932-25.938-25.932-67.982 0-93.914 12.969-12.966 29.962-19.451 46.958-19.448 16.99 0 33.995 6.484 46.958 19.451l25.693 25.696v-135.249c0-5.384-4.387-9.766-9.777-9.766h-460.746c-5.373 0-9.751 4.382-9.751 9.766v76.267c0 36.674-29.726 66.406-66.403 66.406s-66.406-29.729-66.406-66.406v-76.267c0-78.617 63.949-142.575 142.558-142.575h460.744c78.623 0 142.586 63.958 142.586 142.575v135.238l25.687-25.687c25.938-25.932 67.979-25.932 93.917 0 25.935 25.935 25.935 67.979 0.003 93.917z" />
<glyph unicode="&#xe901;" glyph-name="cn-up-arrow" d="M991.603 360.364l-282.658 282.666c-108.598 108.578-285.297 108.578-393.907-0.008l-282.642-282.662c-43.197-43.197-43.197-113.233 0-156.426 43.197-43.197 113.241-43.201 156.43 0.004l282.638 282.65c22.344 22.348 58.716 22.356 81.056 0.008l282.654-282.658c21.6-21.596 49.903-32.401 78.217-32.401 28.302 0 56.612 10.8 78.217 32.401 43.193 43.193 43.193 113.229-0.004 156.426z" />
<glyph unicode="&#xe902;" glyph-name="cn-down-arrow" d="M835.174 692.133l-282.646-282.646c-10.828-10.828-25.223-16.79-40.53-16.79-15.303 0-29.698 5.958-40.522 16.79l-282.65 282.646c-43.205 43.197-113.233 43.197-156.43 0-43.197-43.201-43.197-113.233 0-156.43l282.65-282.642c52.61-52.614 122.553-81.592 196.956-81.592s144.346 28.978 196.96 81.588l282.646 282.646c43.197 43.197 43.197 113.233 0 156.43-43.201 43.197-113.241 43.197-156.434 0z" />
<glyph unicode="&#xe903;" glyph-name="cn-right-arrow" d="M424.364 927.603c-43.205 43.197-113.233 43.197-156.43 0-43.197-43.201-43.197-113.233 0-156.43l282.646-282.638c22.344-22.352 22.352-58.712 0.008-81.052l-282.654-282.658c-43.197-43.201-43.197-113.233 0-156.43 21.6-21.596 49.907-32.397 78.217-32.397 28.302 0 56.616 10.8 78.217 32.397l282.646 282.658c108.598 108.582 108.602 285.285 0.008 393.907l-282.658 282.642z" />
<glyph unicode="&#xe904;" glyph-name="cn-left-arrow" d="M756.137 771.174c43.197 43.201 43.197 113.233 0 156.43-43.205 43.197-113.233 43.197-156.43 0l-282.642-282.65c-52.618-52.614-81.596-122.557-81.596-196.96 0-74.398 28.978-144.346 81.592-196.948l282.646-282.654c21.6-21.596 49.903-32.397 78.217-32.397 28.306 0 56.616 10.8 78.217 32.397 43.197 43.197 43.197 113.229 0 156.43l-282.658 282.658c-10.824 10.824-16.786 25.211-16.786 40.51 0 15.303 5.962 29.694 16.798 40.526l282.642 282.658z" />
<glyph unicode="&#xe905;" glyph-name="cn-go-left" d="M630.749 960c-51.372 0-93.013-41.64-93.013-93.013 0-51.368 41.64-93.013 93.013-93.013 99.997 0 181.353-81.356 181.353-181.353v-64.724c0-99.997-81.356-181.353-181.353-181.353h-326.21l65.737 65.737c36.322 36.326 36.322 95.22 0 131.546-36.33 36.322-95.216 36.322-131.546 0l-158.104-158.104c-35.31-35.314-54.754-82.26-54.754-132.196s19.448-96.886 54.754-132.188l158.104-158.104c18.165-18.161 41.967-27.24 65.773-27.24s47.608 9.079 65.773 27.24c36.322 36.326 36.322 95.22 0 131.546l-65.741 65.737h326.215c202.573 0 367.379 164.806 367.379 367.379v64.724c0 202.573-164.806 367.379-367.379 367.379z" />
<glyph unicode="&#xe906;" glyph-name="cn-go-right" d="M785.271 932.756c-36.33 36.322-95.215 36.322-131.546 0-36.322-36.326-36.322-95.219 0-131.546l65.728-65.728h-326.193c-202.576 0-367.381-164.809-367.381-367.385v-64.724c0-202.572 164.809-367.377 367.381-367.377 51.368 0 93.012 41.64 93.012 93.012 0 51.368-41.644 93.012-93.012 93.012-100.001 0-181.356 81.356-181.356 181.352v64.724c0 100.001 81.356 181.36 181.356 181.36h326.205l-65.737-65.737c-36.322-36.326-36.322-95.219 0-131.546 18.165-18.161 41.967-27.24 65.773-27.24s47.608 9.079 65.773 27.24l158.103 158.103c35.305 35.309 54.745 82.251 54.745 132.187s-19.44 96.878-54.745 132.187l-158.107 158.103z" />
<glyph unicode="&#xe907;" glyph-name="cn-go-down" d="M865.219 306.273l-65.736-65.736v326.208c0 202.571-164.809 367.376-367.38 367.376h-64.724c-202.575 0-367.38-164.805-367.38-367.376 0-51.368 41.644-93.012 93.012-93.012s93.012 41.64 93.012 93.012c0 99.996 81.355 181.352 181.356 181.352h64.724c100 0 181.356-81.355 181.356-181.352v-326.212l-65.736 65.736c-36.318 36.322-95.211 36.318-131.537 0.004-36.326-36.326-36.326-95.219 0-131.541l158.099-158.103c35.309-35.313 82.255-54.757 132.191-54.757 49.932 0 96.881 19.444 132.191 54.757l158.099 158.103c36.322 36.322 36.322 95.215 0 131.541-36.33 36.326-95.223 36.33-131.545 0z" />
<glyph unicode="&#xe908;" glyph-name="cn-go-up" d="M930.988 422.265c-51.368 0-93.012-41.64-93.012-93.012 0-100.001-81.356-181.36-181.352-181.36h-64.728c-100.001 0-181.356 81.36-181.356 181.36v326.213l65.741-65.741c18.165-18.161 41.967-27.24 65.769-27.24s47.608 9.079 65.773 27.244c36.322 36.322 36.322 95.215 0 131.542l-158.099 158.095c-35.305 35.313-82.255 54.762-132.191 54.762s-96.882-19.444-132.191-54.758l-158.095-158.103c-36.322-36.322-36.322-95.215 0-131.542 36.326-36.322 95.219-36.326 131.542 0.004l65.728 65.728v-326.205c0-202.576 164.809-367.385 367.381-367.385h64.728c202.572 0 367.377 164.809 367.377 367.385 0 51.372-41.64 93.012-93.012 93.012z" />
<glyph unicode="&#xe909;" glyph-name="cn-up-and-left" d="M863.608 913.942c-29.694 29.701-69.175 46.058-111.178 46.058 0 0-0.003 0-0.007 0-41.993 0-81.474-16.35-111.175-46.045l-132.975-132.975c-30.549-30.553-30.549-80.086 0-110.635 30.553-30.556 80.083-30.553 110.635-0.003l55.289 55.285v-366.1c0-43.14-35.093-78.236-78.226-78.236h-357.097l55.296 55.302c30.549 30.553 30.549 80.086-0.003 110.635s-80.086 30.546-110.635-0.003l-132.965-132.975c-29.701-29.694-46.058-69.182-46.058-111.185s16.357-81.491 46.051-111.182l132.972-132.972c15.278-15.278 35.294-22.914 55.316-22.914 20.019 0 40.045 7.639 55.316 22.91 30.549 30.553 30.549 80.086 0 110.639l-55.285 55.289h357.087c129.405 0 234.689 105.28 234.689 234.692v366.1l55.292-55.292c15.275-15.275 35.297-22.91 55.316-22.91s40.041 7.636 55.319 22.914c30.549 30.549 30.549 80.083 0 110.635l-132.972 132.969z" />
<glyph unicode="&#xe90a;" glyph-name="cn-down-and-right" d="M840.53 937.088c-30.548 30.552-80.089 30.548-110.644 0.003-30.552-30.555-30.552-80.092 0-110.644l55.297-55.297h-357.118c-129.419 0-234.708-105.289-234.708-234.704v-366.126l-55.293 55.293c-30.555 30.552-80.092 30.555-110.644-0.003-30.555-30.552-30.555-80.089 0-110.644l132.983-132.979c30.657-30.66 70.922-45.991 111.194-45.991 40.262 0 80.534 15.327 111.187 45.98l132.983 132.986c30.552 30.552 30.552 80.089 0 110.644-30.555 30.552-80.092 30.555-110.644-0.003l-55.297-55.293v366.136c0 43.14 35.096 78.236 78.236 78.236h357.118l-55.29-55.297c-30.552-30.552-30.552-80.089 0-110.644 15.279-15.276 35.3-22.912 55.32-22.912s40.044 7.636 55.32 22.916l132.986 132.986c61.307 61.307 61.307 161.064-0.003 222.371l-132.983 132.986z" />
<glyph unicode="&#xe90b;" glyph-name="cn-loop" d="M902.952 390.612c-24.979 24.973-65.465 24.973-90.443 0-24.973-24.976-24.973-65.467 0-90.443l14.6-14.6h-84.906c-61.833 0-106.641 60.191-168.588 160.682 63.062 102.58 108.198 164.177 170.741 164.177h82.753l-14.598-14.598c-24.973-24.976-24.973-65.467 0.003-90.44 12.486-12.486 28.848-18.728 45.219-18.728 16.365 0 32.738 6.245 45.222 18.731l87.145 87.15c21.863 21.858 33.903 50.92 33.903 81.835 0 30.912-12.034 59.972-33.895 81.84l-87.153 87.147c-24.976 24.973-65.47 24.97-90.443-0.003-24.973-24.976-24.973-65.467 0.003-90.44l14.6-14.6h-82.759c-66.547 0-125.417-28.055-179.971-85.769-24.152-25.55-45.959-55.381-66.569-86.667-19.319 27.608-40.023 53.941-63.12 77.446-62.829 63.919-131.67 94.99-210.456 94.99h-160.291c-35.318 0.006-63.95-28.627-63.95-63.944s28.632-63.95 63.95-63.95h160.288c81.213 0 135.271-63.495 199.068-164.108-62.868-98.646-116.626-160.749-196.926-160.749h-160.291c-35.318 0-63.953-28.629-63.953-63.95s28.632-63.95 63.953-63.95h160.288c78.786 0 147.63 31.071 210.459 94.99 22.224 22.607 42.228 47.826 60.918 74.286 19.991-30.136 41.144-58.82 64.48-83.508 54.554-57.714 113.421-85.769 179.968-85.769h84.909l-14.603-14.606c-24.973-24.973-24.973-65.465 0.003-90.438 12.486-12.486 28.848-18.728 45.219-18.728 16.365 0 32.738 6.245 45.222 18.731l87.153 87.156c45.116 45.119 45.119 118.537 0 163.67l-87.15 87.156z" />
<glyph unicode="&#xe90c;" glyph-name="cn-calculation" d="M450.351 409.118h-427.943c-12.375 0-22.408-10.032-22.408-22.408v-427.946c0-12.369 10.032-22.399 22.408-22.399h427.946c12.369 0 22.396 10.029 22.396 22.399v427.946c-0.003 12.375-10.029 22.408-22.399 22.408zM345.752 124.989c17.020-17.020 17.020-44.606 0-61.625-8.508-8.508-19.66-12.762-30.811-12.762s-22.306 4.254-30.814 12.762l-47.75 47.753-47.753-47.753c-8.508-8.508-19.663-12.762-30.814-12.762s-22.306 4.254-30.814 12.762c-17.014 17.020-17.014 44.606 0 61.625l47.756 47.753-47.756 47.753c-17.014 17.020-17.014 44.606 0 61.625 17.020 17.017 44.612 17.017 61.628 0l47.753-47.753 47.753 47.753c17.017 17.017 44.609 17.017 61.622 0 17.020-17.020 17.020-44.606 0-61.625l-47.75-47.753 47.75-47.753zM1001.604 959.631h-427.937c-12.381 0-22.408-10.029-22.408-22.405v-427.946c0-12.375 10.026-22.399 22.408-22.399h427.94c12.369 0 22.396 10.023 22.396 22.399v427.946c-0.003 12.375-10.029 22.405-22.399 22.405zM898.739 679.678h-222.219c-24.064 0-43.574 19.513-43.574 43.577s19.51 43.574 43.574 43.574h222.219c24.064 0 43.574-19.51 43.574-43.574s-19.507-43.577-43.574-43.577zM1001.604 409.118h-427.937c-12.381 0-22.408-10.032-22.408-22.408v-427.946c0-12.369 10.026-22.399 22.408-22.399h427.94c12.369 0 22.396 10.029 22.396 22.399v427.946c-0.003 12.375-10.029 22.408-22.399 22.408zM898.739 38.22h-222.219c-24.064 0-43.574 19.51-43.574 43.574 0 24.067 19.51 43.574 43.574 43.574h222.219c24.064 0 43.574-19.51 43.574-43.574 0.003-24.064-19.507-43.574-43.574-43.574zM898.739 220.114h-222.219c-24.064 0-43.574 19.51-43.574 43.574s19.51 43.574 43.574 43.574h222.219c24.064 0 43.574-19.51 43.574-43.574s-19.507-43.574-43.574-43.574zM450.351 959.631h-427.943c-12.375 0-22.408-10.029-22.408-22.405v-427.946c0-12.375 10.032-22.399 22.408-22.399h427.946c12.369 0 22.396 10.023 22.396 22.399v427.946c-0.003 12.375-10.029 22.405-22.399 22.405zM347.486 679.678h-67.536v-67.533c0-24.064-19.507-43.574-43.571-43.574s-43.577 19.51-43.577 43.574v67.533h-67.533c-24.064 0-43.577 19.513-43.577 43.577s19.513 43.574 43.577 43.574h67.533v67.539c0 24.064 19.513 43.571 43.577 43.571s43.571-19.507 43.571-43.571v-67.536h67.539c24.064 0 43.571-19.51 43.571-43.574s-19.507-43.58-43.574-43.58z" />
<glyph unicode="&#xe90d;" glyph-name="cn-tungsten-bulb" d="M512.003 960c-199.657 0-361.505-161.845-361.505-361.499 0-131.769 70.504-247.050 175.842-310.225h121.998l-86.467 236.028c-4.871 13.296 1.955 28.022 15.254 32.893 13.288 4.877 28.022-1.96 32.893-15.254l92.929-253.664h18.101l92.929 253.664c4.871 13.293 19.597 20.122 32.893 15.254 13.296-4.871 20.125-19.597 15.254-32.893l-86.467-236.028h122.004c105.332 63.175 175.836 178.458 175.836 310.225 0.006 199.654-161.842 361.499-361.494 361.499zM359.453 28.044c0-14.161 11.481-25.636 25.639-25.636h57.842v-15.301c0-28.227 22.88-51.11 51.113-51.11h35.91c28.233 0 51.113 22.883 51.113 51.11v15.301h57.842c14.164 0 25.639 11.475 25.639 25.636v220.491h-305.097v-220.491z" />
<glyph unicode="&#xe90e;" glyph-name="cn-zoom-out" d="M1002.389 107.844l-318.138 318.141c72.927 137.362 51.628 312.014-63.924 427.576-68.641 68.638-159.905 106.439-256.974 106.439-97.075 0-188.339-37.801-256.981-106.442-141.689-141.696-141.689-372.256 0-513.951 68.641-68.641 159.899-106.442 256.974-106.442 60.526 0 118.792 14.699 170.724 42.402l318.004-318.004c13.895-13.904 32.379-21.563 52.034-21.563 19.658 0 38.139 7.659 52.018 21.554l46.251 46.251c28.683 28.674 28.693 75.34 0.013 104.039zM189.606 422.838c-95.799 95.802-95.799 251.689-0.006 347.495 46.411 46.408 108.114 71.966 173.749 71.966 65.632 0 127.332-25.559 173.736-71.966 95.802-95.805 95.802-251.689 0-347.495-46.404-46.408-108.108-71.966-173.739-71.966s-127.335 25.559-173.739 71.966zM487.132 645.308h-247.563c-12.896 0-23.354-10.464-23.354-23.363v-46.707c0-12.896 10.458-23.354 23.354-23.354h247.56c12.896 0 23.354 10.458 23.354 23.354v46.707c0.003 12.896-10.455 23.363-23.351 23.363z" />
<glyph unicode="&#xe90f;" glyph-name="cn-zoom-in" d="M1002.389 107.844l-318.138 318.141c72.933 137.362 51.635 312.014-63.928 427.576-68.641 68.638-159.905 106.439-256.974 106.439-97.072 0-188.33-37.801-256.977-106.442-141.686-141.696-141.686-372.256 0.003-513.951 68.641-68.641 159.899-106.442 256.968-106.442 60.529 0 118.795 14.699 170.724 42.406l318.007-318.007c13.892-13.904 32.375-21.563 52.034-21.563s38.139 7.659 52.018 21.554l46.251 46.251c28.683 28.674 28.693 75.34 0.013 104.039zM189.606 422.838c-95.799 95.802-95.799 251.689-0.003 347.491 46.411 46.411 108.114 71.97 173.746 71.97 65.629 0 127.332-25.559 173.739-71.966 95.802-95.805 95.802-251.689 0-347.495-46.411-46.408-108.114-71.966-173.746-71.966-65.625 0-127.329 25.559-173.736 71.966zM487.126 645.302h-77.063v77.069c0 12.896-10.458 23.347-23.354 23.347h-46.711c-12.902 0-23.36-10.451-23.36-23.347v-77.069h-77.069c-12.902 0-23.354-10.458-23.354-23.357v-46.707c0-12.896 10.451-23.36 23.354-23.36h77.063v-77.063c0-12.902 10.458-23.351 23.36-23.351h46.711c12.896 0 23.354 10.448 23.354 23.351v77.063h77.063c12.902 0 23.354 10.464 23.354 23.36v46.707c0.006 12.896-10.445 23.357-23.347 23.357z" />
<glyph unicode="&#xe910;" glyph-name="cn-zoom" d="M1002.363 107.844l-318.132 318.141c72.927 137.362 51.628 312.014-63.928 427.576-68.638 68.638-159.902 106.439-256.974 106.439s-188.336-37.801-256.974-106.442c-141.686-141.696-141.686-372.256 0-513.951 68.641-68.644 159.902-106.445 256.974-106.445 60.526 0 118.789 14.699 170.72 42.406l318.007-318.004c13.895-13.904 32.375-21.563 52.031-21.563s38.133 7.656 52.021 21.554l46.251 46.251c13.898 13.892 21.551 32.366 21.551 52.021 0 19.645-7.649 38.12-21.547 52.018zM189.59 422.838c-95.799 95.802-95.799 251.689-0.003 347.495 46.408 46.408 108.111 71.966 173.743 71.966s127.335-25.559 173.739-71.966c95.799-95.805 95.799-251.689 0-347.495-46.408-46.411-108.108-71.97-173.739-71.97s-127.332 25.559-173.739 71.97z" />
<glyph unicode="&#xe911;" glyph-name="cn-business-man" d="M831.572 599.872c64.859 0 117.436 52.577 117.436 117.434s-52.577 117.434-117.436 117.434c-64.848 0-117.426-52.577-117.426-117.434s52.577-117.434 117.426-117.434zM1020.678 572.37c-2.338 2.504-5.61 3.929-9.038 3.929h-256.87l-23.431-334.842c-0.306-4.383-1.224-8.582-2.602-12.556v-221.351c0-6.827 5.534-12.361 12.361-12.361h180.954c6.827 0 12.361 5.534 12.361 12.361v228.528h55.148c6.492 0 11.875 5.019 12.329 11.495l22.080 315.501c0.24 3.42-0.95 6.785-3.291 9.294zM309.851 717.306c0-64.857-52.577-117.434-117.434-117.434s-117.434 52.577-117.434 117.434c0 64.857 52.577 117.434 117.434 117.434s117.434-52.577 117.434-117.434zM269.223 576.299h-256.865c-3.428 0-6.7-1.425-9.038-3.929-2.341-2.51-3.531-5.874-3.291-9.292l22.077-315.501c0.454-6.476 5.837-11.495 12.329-11.495h55.148v-228.528c0-6.827 5.534-12.361 12.361-12.361h180.96c6.827 0 12.361 5.534 12.361 12.361v221.335c-1.38 3.977-2.301 8.183-2.607 12.572l-23.433 334.839zM638.951 774.855c0-70.115-56.84-126.955-126.955-126.955s-126.955 56.84-126.955 126.955c0 70.115 56.84 126.955 126.955 126.955s126.955-56.84 126.955-126.955zM716.434 618.165c-2.528 2.708-6.067 4.249-9.772 4.249h-389.33c-3.705 0-7.244-1.541-9.772-4.249-2.525-2.71-3.813-6.349-3.557-10.046l23.869-341.077c0.475-6.766 5.94-12.018 12.64-12.363l60.309-0.034v-247.090c0-7.378 5.985-13.363 13.363-13.363h195.629c7.378 0 13.361 5.985 13.361 13.363v247.090l60.309 0.034c6.7 0.348 12.165 5.6 12.64 12.363l23.869 341.077c0.253 3.694-1.034 7.333-3.56 10.046z" />
<glyph unicode="&#xe912;" glyph-name="cn-id-card" d="M502.194 569.172h19.611c36.112 0 65.387 29.275 65.387 65.387v156.927c0 36.115-29.275 65.381-65.387 65.381h-19.611c-36.112 0-65.39-29.266-65.39-65.381v-156.927c0-36.112 29.278-65.387 65.39-65.387zM999.092 705.734h-363.646v-71.172c0-62.663-50.976-113.64-113.64-113.64h-19.611c-62.66 0-113.64 50.976-113.64 113.64v71.172h-363.649c-13.757 0-24.905-11.158-24.905-24.917v-616.776c0-13.757 11.149-24.911 24.905-24.911h974.186c13.757 0 24.908 11.155 24.908 24.911v616.776c0 13.759-11.152 24.917-24.908 24.917zM434.194 162.017h-321.676c-4.442 0-8.041 3.602-8.041 8.044 0 63.265 35.153 120.686 90.583 149.668-23.353 21.69-36.979 52.445-36.979 84.562 0 63.558 51.712 115.27 115.273 115.27s115.27-51.712 115.27-115.27c0-32.118-13.626-62.869-36.979-84.562 55.43-28.984 90.586-86.411 90.586-149.668 0.003-4.439-3.596-8.044-8.038-8.044zM911.48 210.909h-296.451c-22.208 0-40.208 18.004-40.208 40.211s18.001 40.208 40.208 40.208h296.454c22.208 0 40.208-18.001 40.208-40.208-0.003-22.208-18.004-40.211-40.211-40.211zM911.48 385.078h-296.451c-22.208 0-40.208 18.001-40.208 40.208s18.001 40.208 40.208 40.208h296.454c22.208 0 40.208-18.001 40.208-40.208s-18.004-40.208-40.211-40.208z" />
<glyph unicode="&#xe913;" glyph-name="cn-floppy" d="M1010.965 751.744c-52.076 52.259-105.285 105.074-156.747 156.148l-43.848 43.534c-5.527 5.492-13.003 8.574-20.796 8.574h-755.638c-16.299 0-29.51-13.211-29.51-29.51v-964.979c0-16.299 13.211-29.51 29.51-29.51h166.172v363.646c0 16.303 13.211 29.51 29.514 29.51h564.756c16.299 0 29.507-13.208 29.507-29.51v-363.646h166.175c16.299 0 29.51 13.211 29.51 29.51v765.402c0 7.806-3.092 15.298-8.606 20.831zM278.072 526.845h-110.662v298.052h110.662v-298.052zM717.093 156.495h-410.192c-19.557 0-35.412 15.855-35.412 35.415s15.855 35.412 35.412 35.412h410.192c19.554 0 35.412-15.855 35.412-35.412s-15.858-35.415-35.412-35.415zM717.093 16.319h-410.192c-19.557 0-35.412 15.855-35.412 35.412s15.855 35.412 35.412 35.412h410.192c19.554 0 35.412-15.855 35.412-35.412s-15.858-35.412-35.412-35.412z" />
<glyph unicode="&#xe914;" glyph-name="cn-loss" d="M167.078 671.134c8.71 0 17.122 1.271 25.088 3.6l180.579-155.603c9.474-8.161 21.163-12.188 32.813-12.188 13.263 0 26.485 5.224 36.333 15.505l186.684 194.946 138.805-91.377c1.048-48.496 40.796-87.634 89.541-87.634 49.401 0 89.593 40.188 89.593 89.582 0 49.401-40.192 89.589-89.593 89.589-12.38 0-24.177-2.525-34.912-7.086l-173.12 113.979c-20.272 13.344-47.187 10.306-63.974-7.222l-182.661-190.745-145.999 125.8c0.262 2.78 0.412 5.595 0.412 8.444 0 49.401-40.188 89.589-89.586 89.589-49.401 0-89.593-40.192-89.593-89.589s40.188-89.593 89.589-89.593zM927.398 238.894h-830.793c-53.354 0-96.605-43.255-96.605-96.605s43.251-96.605 96.605-96.605h830.793c53.354 0 96.605 43.255 96.605 96.605-0.003 53.351-43.255 96.605-96.605 96.605z" />
<glyph unicode="&#xe915;" glyph-name="cn-profit" d="M167.077 538.39c48.748 0 88.499 39.137 89.543 87.633l138.801 91.377 186.679-194.945c9.851-10.285 23.066-15.505 36.336-15.505 11.646 0 23.338 4.027 32.813 12.188l180.582 155.602c7.966-2.329 16.382-3.6 25.091-3.6 49.397 0 89.589 40.192 89.589 89.589s-40.188 89.589-89.589 89.589c-49.401 0-89.592-40.192-89.592-89.589 0-2.85 0.147-5.668 0.412-8.451l-145.995-125.796-182.656 190.744c-16.79 17.531-43.698 20.569-63.974 7.222l-173.126-113.971c-10.735 4.564-22.535 7.086-34.915 7.086-49.401 0-89.592-40.192-89.592-89.589 0-49.394 40.192-89.582 89.592-89.582zM927.395 238.896h-830.791c-53.354 0-96.605-43.254-96.605-96.605s43.251-96.605 96.605-96.605h830.791c53.354 0 96.605 43.254 96.605 96.605s-43.251 96.605-96.605 96.605z" />
<glyph unicode="&#xe916;" glyph-name="cn-stcok-decrease" d="M912.436 122.249h-800.872c-51.433 0-93.126-41.693-93.126-93.123s41.693-93.126 93.126-93.126h800.872c51.433 0 93.126 41.697 93.126 93.126 0 51.433-41.693 93.123-93.126 93.123zM806.894 182.094c51.433 0 93.126 41.697 93.126 93.126v355.739c0 51.429-41.693 93.126-93.126 93.126s-93.126-41.697-93.126-93.126v-355.739c0-51.429 41.693-93.126 93.126-93.126zM512 182.094c51.433 0 93.126 41.697 93.126 93.126v473.697c0 51.429-41.693 93.126-93.126 93.126s-93.126-41.697-93.126-93.126v-473.697c0-51.429 41.693-93.126 93.126-93.126zM217.102 182.094c51.433 0 93.126 41.697 93.126 93.126v591.654c0 51.429-41.693 93.126-93.126 93.126s-93.123-41.697-93.123-93.126v-591.654c0-51.429 41.69-93.126 93.123-93.126z" />
<glyph unicode="&#xe917;" glyph-name="cn-stock-increase" d="M912.439 122.252h-800.878c-51.429 0-93.126-41.697-93.126-93.126s41.697-93.126 93.126-93.126h800.878c51.429 0 93.126 41.697 93.126 93.126 0 51.433-41.697 93.126-93.126 93.126zM217.102 182.091c51.429 0 93.126 41.697 93.126 93.126v355.739c0 51.429-41.697 93.126-93.126 93.126s-93.126-41.697-93.126-93.126v-355.739c0-51.429 41.697-93.126 93.126-93.126zM512.003 182.091c51.429 0 93.126 41.697 93.126 93.126v473.697c0 51.429-41.697 93.126-93.126 93.126s-93.126-41.697-93.126-93.126v-473.697c0-51.429 41.693-93.126 93.126-93.126zM806.894 182.091c51.429 0 93.123 41.697 93.123 93.126v591.657c0.003 51.429-41.69 93.126-93.123 93.126-51.429 0-93.126-41.697-93.126-93.126v-591.657c0-51.429 41.697-93.126 93.126-93.126z" />
<glyph unicode="&#xe918;" glyph-name="cn-abacus" d="M952.537 960c-32.109 0-58.137-26.029-58.137-58.137v-46.040h-296.64c-4.4 39.379-37.778 70.004-78.346 70.004s-73.946-30.626-78.341-70.004h-48.219c-4.397 39.379-37.772 70.004-78.341 70.004-40.563 0-73.946-30.626-78.341-70.004h-106.573v46.040c0 32.109-26.029 58.137-58.137 58.137s-58.137-26.029-58.137-58.137v-907.726c0-32.109 26.029-58.137 58.137-58.137s58.137 26.029 58.137 58.137v69.993h141.27c4.4-39.373 37.778-69.993 78.335-69.993 40.571 0 73.949 30.62 78.352 69.993h466.841v-69.993c0-32.109 26.029-58.137 58.137-58.137s58.137 26.029 58.137 58.137v907.726c0 32.109-26.029 58.137-58.134 58.137zM427.559 180.408c-4.4 39.379-37.78 70.007-78.352 70.007-40.557 0-73.935-30.628-78.335-70.007h-141.272v221.439h106.57c4.397-39.376 37.778-70.002 78.341-70.002 40.568 0 73.944 30.626 78.341 70.002h208.13c4.4-39.376 37.778-70.002 78.341-70.002 40.568 0 73.952 30.626 78.352 70.002h136.724v-221.436h-466.839zM236.17 739.548c4.405-39.376 37.783-69.999 78.341-69.999 40.563 0 73.935 30.623 78.341 69.999h48.219c4.405-39.376 37.778-69.999 78.341-69.999s73.941 30.623 78.346 69.999h296.643v-221.428h-136.724c-4.397 39.379-37.783 69.999-78.352 69.999-40.563 0-73.944-30.62-78.341-69.999h-208.13c-4.397 39.379-37.772 69.999-78.341 69.999-40.563 0-73.946-30.62-78.341-69.999h-106.573v221.428h106.57z" />
<glyph unicode="&#xe919;" glyph-name="cn-calculator" d="M874.054 960h-724.108c-12.305 0-22.279-9.974-22.279-22.279v-979.442c0-12.303 9.974-22.279 22.279-22.279h724.108c12.305 0 22.279 9.976 22.279 22.279v979.442c0 12.305-9.974 22.279-22.279 22.279zM238.444 863.357c0 4.58 3.719 8.288 8.293 8.288h530.526c4.58 0 8.293-3.708 8.293-8.288v-176.565c0-4.58-3.714-8.293-8.293-8.293h-530.526c-4.574 0-8.293 3.714-8.293 8.293v176.565zM367.337 60.015c0-6.897-5.583-12.491-12.485-12.491h-103.92c-6.895 0-12.491 5.591-12.491 12.491v92.381c0 6.895 5.593 12.491 12.491 12.491h103.917c6.9 0 12.485-5.596 12.485-12.491v-92.381zM367.337 271.673c0-6.895-5.583-12.485-12.485-12.485h-103.92c-6.895 0-12.491 5.588-12.491 12.485v92.383c0 6.892 5.593 12.485 12.491 12.485h103.917c6.9 0 12.485-5.593 12.485-12.485v-92.383zM367.337 483.333c0-6.895-5.583-12.48-12.485-12.48h-103.92c-6.895 0-12.491 5.583-12.491 12.48v92.389c0 6.892 5.593 12.48 12.491 12.48h103.917c6.9 0 12.485-5.585 12.485-12.48v-92.389zM578.994 60.015c0-6.897-5.583-12.491-12.485-12.491h-103.92c-6.895 0-12.485 5.591-12.485 12.491v92.381c0 6.895 5.588 12.491 12.485 12.491h103.92c6.9 0 12.485-5.596 12.485-12.491v-92.381zM578.994 271.673c0-6.895-5.583-12.485-12.485-12.485h-103.92c-6.895 0-12.485 5.588-12.485 12.485v92.383c0 6.892 5.588 12.485 12.485 12.485h103.92c6.9 0 12.485-5.593 12.485-12.485v-92.383zM578.994 483.333c0-6.895-5.583-12.48-12.485-12.48h-103.92c-6.895 0-12.485 5.583-12.485 12.48v92.389c0 6.892 5.588 12.48 12.485 12.48h103.92c6.9 0 12.485-5.585 12.485-12.48v-92.389zM790.66 60.015c0-6.897-5.593-12.491-12.485-12.491h-103.922c-6.895 0-12.48 5.591-12.48 12.491v92.381c0 6.895 5.583 12.491 12.48 12.491h103.922c6.892 0 12.485-5.596 12.485-12.491v-92.381zM790.66 271.673c0-6.895-5.593-12.485-12.485-12.485h-103.922c-6.895 0-12.48 5.588-12.48 12.485v92.383c0 6.892 5.583 12.485 12.48 12.485h103.922c6.892 0 12.485-5.593 12.485-12.485v-92.383zM790.66 483.333c0-6.895-5.593-12.48-12.485-12.48h-103.922c-6.895 0-12.48 5.583-12.48 12.48v92.389c0 6.892 5.583 12.48 12.48 12.48h103.922c6.892 0 12.485-5.585 12.485-12.48v-92.389z" />
<glyph unicode="&#xe91a;" glyph-name="cn-profit-loss-board" d="M275.368 183.653l-59.476-81.198c-18.167-24.794-12.786-59.621 12.008-77.779 9.913-7.264 21.426-10.761 32.842-10.761 17.135 0 34.040 7.888 44.94 22.772l107.654 146.969h-137.968zM748.632 183.653h-137.968l107.654-146.969c10.9-14.883 27.805-22.772 44.94-22.772 11.413 0 22.932 3.501 32.842 10.761 24.797 18.161 30.174 52.988 12.011 77.779l-59.479 81.201zM996.174 882.088h-968.347c-15.372 0-27.826-12.457-27.826-27.829v-601.041c0-15.369 12.454-27.823 27.826-27.823h968.35c15.372 0 27.826 12.454 27.826 27.823v601.041c-0.003 15.372-12.457 27.829-27.829 27.829zM810.061 578.713c-7.526 0-14.799 1.098-21.682 3.114l-156.047-134.458c-8.184-7.055-18.287-10.535-28.355-10.535-11.467 0-22.886 4.512-31.396 13.399l-161.316 168.456-119.94-78.953c-0.905-41.916-35.259-75.739-77.384-75.739-42.689 0-77.417 34.731-77.417 77.42s34.731 77.42 77.417 77.42c10.698 0 20.898-2.185 30.177-6.123l149.595 98.478c17.524 11.537 40.776 8.905 55.279-6.241l157.842-164.825 126.156 108.702c-0.223 2.405-0.353 4.837-0.353 7.3 0 42.689 34.734 77.42 77.423 77.42s77.417-34.731 77.417-77.42c0-42.686-34.731-77.414-77.417-77.414z" />
<glyph unicode="&#xe91b;" glyph-name="cn-finance-board" d="M275.367 183.652l-59.476-81.198c-18.164-24.794-12.783-59.621 12.008-77.779 9.913-7.264 21.429-10.761 32.842-10.761 17.135 0 34.040 7.888 44.943 22.772l107.657 146.969h-137.973zM748.633 183.652h-137.967l107.654-146.969c10.9-14.883 27.805-22.772 44.94-22.772 11.413 0 22.932 3.501 32.842 10.761 24.797 18.161 30.174 52.988 12.008 77.779l-59.476 81.201zM996.174 882.088h-968.347c-15.369 0-27.826-12.457-27.826-27.829v-601.042c0-15.369 12.457-27.823 27.826-27.823h968.347c15.366 0 27.826 12.454 27.826 27.823v601.042c0 15.372-12.46 27.829-27.826 27.829zM365.911 434.772c0-26.894-21.803-48.697-48.697-48.697s-48.697 21.803-48.697 48.697v121.421c0 26.894 21.803 48.697 48.697 48.697s48.697-21.803 48.697-48.697v-121.421zM560.692 434.772c0-26.894-21.803-48.697-48.697-48.697s-48.697 21.803-48.697 48.697v199.342c0 26.894 21.803 48.697 48.697 48.697s48.697-21.803 48.697-48.697v-199.342zM755.48 434.772c0-26.894-21.803-48.697-48.697-48.697s-48.697 21.803-48.697 48.697v277.247c0 26.894 21.803 48.697 48.697 48.697s48.697-21.803 48.697-48.697v-277.247z" />
<glyph unicode="&#xe91c;" glyph-name="cn-music-board" d="M748.63 183.652h-137.967l107.654-146.969c10.9-14.886 27.802-22.772 44.943-22.772 11.41 0 22.929 3.501 32.839 10.758 24.797 18.164 30.174 52.985 12.011 77.782l-59.479 81.201zM275.37 183.652l-59.476-81.198c-18.164-24.8-12.786-59.621 12.011-77.782 9.913-7.258 21.426-10.758 32.839-10.758 17.138 0 34.043 7.888 44.943 22.772l107.654 146.969h-137.97zM996.177 882.088h-968.35c-15.372 0-27.826-12.457-27.826-27.829v-601.042c0-15.369 12.454-27.823 27.826-27.823h968.35c15.369 0 27.823 12.454 27.823 27.823v601.042c0 15.372-12.454 27.829-27.823 27.829zM656.623 671.931l-8.287-50.417c-0.498-3.039-3.374-5.094-6.395-4.59-33.841 5.559-66.076 17.461-88.938 27.443l-32.625-169.735c-5.891-30.642-41.053-57.524-75.25-57.524-42.915 0-77.827 34.592-77.827 77.115 0 42.52 34.912 77.112 77.827 77.112 10.079 0 20.119-1.968 29.417-5.737l31.834 166.020c0.338 1.768 1.518 3.268 3.16 4.017 1.642 0.745 3.546 0.646 5.106-0.257l31.155-18.149c2.124-1.216 53.151-30.192 106.23-38.907 1.455-0.238 2.758-1.047 3.618-2.245 0.863-1.198 1.213-2.689 0.975-4.146z" />
<glyph unicode="&#xe91d;" glyph-name="cn-play-board" d="M748.63 183.652h-137.967l107.654-146.969c10.903-14.886 27.802-22.772 44.943-22.772 11.41 0 22.929 3.501 32.839 10.758 24.797 18.164 30.174 52.985 12.011 77.782l-59.479 81.201zM275.37 183.652l-59.479-81.198c-18.164-24.8-12.786-59.621 12.011-77.782 9.913-7.258 21.429-10.758 32.839-10.758 17.135 0 34.040 7.888 44.943 22.772l107.654 146.969h-137.967zM996.174 882.088h-968.344c-15.372 0-27.829-12.457-27.829-27.829v-601.042c0-15.369 12.457-27.823 27.829-27.823h968.344c15.369 0 27.826 12.454 27.826 27.823v601.042c0 15.372-12.457 27.829-27.826 27.829zM635.037 548.866l-166.955-116.33c-4.756-3.316-10.321-4.994-15.909-4.994-4.403 0-8.824 1.044-12.874 3.16-9.189 4.795-14.95 14.301-14.95 24.667v232.654c0 10.366 5.761 19.872 14.95 24.667 9.189 4.804 20.282 4.092 28.783-1.835l166.955-116.327c7.469-5.203 11.917-13.731 11.917-22.829 0-9.101-4.448-17.633-11.917-22.832z" />
<glyph unicode="&#xe91e;" glyph-name="cn-picture-board" d="M748.63 183.652h-137.97l107.654-146.969c10.903-14.886 27.802-22.772 44.943-22.772 11.41 0 22.929 3.501 32.839 10.758 24.797 18.164 30.174 52.985 12.011 77.782l-59.476 81.201zM275.37 183.652l-59.479-81.198c-18.164-24.794-12.786-59.621 12.008-77.779 9.913-7.264 21.429-10.761 32.842-10.761 17.135 0 34.040 7.888 44.943 22.772l107.657 146.969h-137.97zM996.177 882.088h-968.35c-15.369 0-27.826-12.457-27.826-27.829v-601.042c0-15.369 12.457-27.823 27.826-27.823h968.35c15.369 0 27.823 12.454 27.823 27.823v601.042c0 15.372-12.454 27.829-27.823 27.829zM750.432 344.282c-3.833-9.249-12.859-15.282-22.871-15.282h-534.456c-13.67 0-24.754 11.081-24.754 24.754v33.201c0 6.567 2.607 12.862 7.252 17.506l204.215 204.215c9.666 9.666 25.343 9.666 35.009 0l144.169-144.169 28.907 28.91c9.666 9.666 25.343 9.666 35.009 0l122.157-122.154c7.080-7.086 9.195-17.732 5.366-26.981zM794.186 618.388c-41.267 0-74.842 33.572-74.842 74.839 0 41.27 33.575 74.845 74.842 74.845s74.842-33.575 74.842-74.845c0-41.267-33.572-74.839-74.842-74.839z" />
<glyph unicode="&#xe91f;" glyph-name="cn-board" d="M1024 253.217v601.042c0 15.372-12.457 27.829-27.826 27.829h-968.347c-15.369 0-27.826-12.457-27.826-27.829v-601.042c0-15.369 12.457-27.823 27.826-27.823h968.344c15.372 0.003 27.829 12.457 27.829 27.823zM275.37 183.655l-59.479-81.198c-18.161-24.8-12.786-59.621 12.011-77.782 9.913-7.258 21.429-10.758 32.839-10.758 17.135 0 34.040 7.888 44.943 22.772l107.654 146.969h-137.967zM748.627 183.655h-137.97l107.657-146.969c10.903-14.883 27.805-22.772 44.943-22.772 11.413 0 22.929 3.501 32.842 10.761 24.794 18.161 30.171 52.988 12.008 77.779l-59.479 81.201z" />
<glyph unicode="&#xe920;" glyph-name="cn-profit-board" d="M215.885 102.452c-18.161-24.797-12.78-59.618 12.014-77.782 9.91-7.258 21.429-10.758 32.839-10.758 17.138 0 34.040 7.888 44.946 22.772l107.657 146.972h-137.974l-59.482-81.204zM748.626 183.653h-137.968l107.661-146.975c10.9-14.886 27.805-22.769 44.937-22.769 11.416 0 22.935 3.501 32.848 10.761 24.791 18.164 30.171 52.988 12.008 77.782l-59.485 81.201zM996.174 882.091h-968.353c-15.366 0-27.82-12.46-27.82-27.833v-601.041c0-15.372 12.454-27.829 27.82-27.829h968.356c15.366 0 27.826 12.457 27.826 27.829v601.041c-0.003 15.372-12.463 27.833-27.829 27.833zM837.909 597.278c0-19.229-15.565-34.822-34.816-34.822-19.232 0-34.8 15.593-34.8 34.822v27.286l-165.667-152.694c-10.233-9.445-25.101-11.872-37.809-6.189l-170.677 76.33-196.472-128.039c-5.882-3.811-12.46-5.649-18.972-5.649-11.398 0-22.545 5.568-29.212 15.81-10.508 16.118-5.942 37.682 10.161 48.175l212.355 138.414c9.94 6.452 22.449 7.439 33.249 2.607l167.043-74.719 140.985 129.955h-16.302c-19.217 0-34.813 15.587-34.813 34.825 0 19.226 15.596 34.816 34.813 34.816h106.121c19.25 0 34.816-15.59 34.816-34.816v-106.112z" />
<glyph unicode="&#xe921;" glyph-name="cn-box" d="M927.284 654.828h-238.638v-101.603c0-12.577-10.199-22.776-22.769-22.776h-307.761c-12.573 0-22.769 10.196-22.769 22.776v101.603h-238.631c-12.566 0-22.769-10.182-22.769-22.776v-646.53c0-12.577 10.203-22.776 22.769-22.776h830.568c12.566 0 22.766 10.199 22.766 22.776v646.533c0.003 12.594-10.199 22.773-22.766 22.773zM1024 739.814c0-12.566-10.182-22.762-22.748-22.762h-978.503c-12.566 0-22.748 10.196-22.748 22.762v170.66c0 12.577 10.182 22.773 22.748 22.773h978.507c12.566 0 22.748-10.196 22.748-22.773v-170.66z" />
<glyph unicode="&#xe922;" glyph-name="cn-bag" d="M604.79 443.997c0.058-0.765 0.114-1.522 0.114-2.301v-33.361c0-16.86-13.656-30.511-30.511-30.511h-124.791c-16.854 0-30.511 13.651-30.511 30.511v33.361c0 0.78 0.058 1.539 0.117 2.301l-419.207 107.531v-488.95c0-14.877 12.053-26.933 26.93-26.933h82.893v-23.224c0-3.233 2.623-5.847 5.853-5.847h69.716c3.227 0 5.847 2.614 5.847 5.847v23.224h641.518v-23.224c0-3.233 2.617-5.847 5.847-5.847h69.716c3.227 0 5.847 2.614 5.847 5.847v23.224h82.899c14.871 0 26.936 12.056 26.936 26.933v488.95l-419.213-107.531zM512.001 475.802l512.001 131.331v125.273c0 14.874-12.065 26.927-26.936 26.927h-299.252v95.569c0 19.065-15.458 34.524-34.527 34.524h-302.585c-19.062 0-34.521-15.458-34.521-34.524v-95.569h-299.252c-14.877 0-26.93-12.053-26.93-26.927v-125.276l512.001-131.328zM401.585 814.023h220.824v-54.69h-220.824v54.69z" />
<glyph unicode="&#xe923;" glyph-name="cn-suitcase-3" d="M997.070 759.333h-94.614v-349.036c0-14.877-12.053-26.93-26.93-26.93h-11.933c-14.871 0-26.93 12.053-26.93 26.93v349.036h-138.851v95.569c0 19.065-15.453 34.524-34.521 34.524h-302.582c-19.062 0-34.521-15.458-34.521-34.524v-95.569h-138.851v-349.036c0-14.877-12.053-26.93-26.93-26.93h-11.927c-14.877 0-26.936 12.053-26.936 26.93v349.036h-94.614c-14.871 0-26.93-12.053-26.93-26.927v-669.827c0-14.877 12.059-26.933 26.93-26.933h82.899v-23.224c0-3.233 2.617-5.847 5.853-5.847h69.713c3.227 0 5.847 2.614 5.847 5.847v23.224h641.518v-23.224c0-3.233 2.614-5.847 5.847-5.847h69.716c3.227 0 5.847 2.614 5.847 5.847v23.224h82.899c14.877 0 26.93 12.056 26.93 26.933v669.827c0 14.874-12.053 26.927-26.93 26.927zM622.409 759.333h-220.819v54.69h220.819v-54.69z" />
<glyph unicode="&#xe924;" glyph-name="cn-suitcase-2" d="M997.070 759.333h-299.249v95.569c0 19.065-15.458 34.524-34.527 34.524h-302.585c-19.062 0-34.527-15.458-34.527-34.524v-95.569h-299.252c-14.871 0-26.93-12.053-26.93-26.927v-669.827c0-14.877 12.059-26.933 26.93-26.933h82.905v-23.224c0-3.233 2.614-5.847 5.841-5.847h69.719c3.227 0 5.841 2.614 5.841 5.847v23.224h641.524v-23.224c0-3.233 2.617-5.847 5.847-5.847h69.716c3.227 0 5.847 2.614 5.847 5.847v23.224h82.899c14.871 0 26.93 12.056 26.93 26.933v669.827c0 14.874-12.059 26.927-26.93 26.927zM326.118 264.443c0-14.871-12.059-26.93-26.936-26.93h-5.248c-14.871 0-26.93 12.059-26.93 26.93v296.77c0 14.874 12.059 26.927 26.93 26.927h5.248c14.877 0 26.936-12.053 26.936-26.927v-296.77zM541.554 264.443c0-14.871-12.053-26.93-26.93-26.93h-5.248c-14.877 0-26.93 12.059-26.93 26.93v296.77c0 14.874 12.053 26.927 26.93 26.927h5.248c14.877 0 26.93-12.053 26.93-26.927v-296.77zM622.415 759.333h-220.83v54.69h220.83v-54.69zM756.993 264.443c0-14.871-12.053-26.93-26.93-26.93h-5.248c-14.877 0-26.93 12.059-26.93 26.93v296.77c0 14.874 12.053 26.927 26.93 26.927h5.248c14.877 0 26.93-12.053 26.93-26.927v-296.77z" />
<glyph unicode="&#xe925;" glyph-name="cn-suitcase" d="M997.070 759.335h-299.251v95.569c0 19.065-15.458 34.524-34.515 34.524h-302.595c-19.065 0-34.527-15.458-34.527-34.524v-95.569h-299.248c-14.877 0-26.933-12.053-26.933-26.927v-669.834c0-14.877 12.056-26.933 26.933-26.933h82.897v-23.224c0-3.233 2.617-5.847 5.844-5.847h69.719c3.227 0 5.844 2.614 5.844 5.847v23.224h641.531v-23.224c0-3.233 2.614-5.847 5.841-5.847h69.722c3.227 0 5.841 2.614 5.841 5.847v23.224h82.9c14.877 0 26.93 12.056 26.93 26.933v669.834c-0.003 14.874-12.056 26.927-26.933 26.927zM401.59 814.025h220.823v-54.69h-220.823v54.69z" />
<glyph unicode="&#xe926;" glyph-name="cn-shredder" d="M740.877 878.585c0 7.306-5.926 13.232-13.229 13.232h-431.296c-7.306 0-13.232-5.929-13.232-13.232v-121.719h457.757v121.719zM997.54 713.031h-971.082c-14.612 0-26.457-11.846-26.457-26.46v-385.268c0-14.615 11.843-26.46 26.457-26.46h216.974v232.323c0 14.618 11.846 26.46 26.457 26.46h30.070v-278.377c0-110.062-97.126-185.675-98.002-186.347l47.827-63.354c5.289 3.994 129.555 99.528 129.555 249.704v278.377h34.67v-529.441h79.381v529.438h37.213v-529.441h79.381v529.441h34.667v-278.377c0-150.176 124.267-245.71 129.555-249.704l47.827 63.354c-0.981 0.74-98.002 75.266-98.002 186.347v278.377h30.073c14.612 0 26.457-11.843 26.457-26.46v-232.323h216.974c14.615 0 26.46 11.846 26.46 26.46v385.271c0.003 14.615-11.843 26.46-26.457 26.46zM915.479 572.631c-18.512 0-33.517 15.005-33.517 33.519 0 18.509 15.005 33.517 33.517 33.517 18.514 0 33.519-15.005 33.519-33.517s-15.008-33.519-33.519-33.519z" />
<glyph unicode="&#xe927;" glyph-name="cn-printer" d="M997.54 690.442h-971.077c-14.615 0-26.463-11.843-26.463-26.46v-385.267c0-14.612 11.848-26.46 26.463-26.46h216.968v232.323c0 14.618 11.848 26.46 26.463 26.46h484.215c14.612 0 26.46-11.843 26.46-26.46v-232.323h216.97c14.612 0 26.46 11.848 26.46 26.46v385.267c0 14.618-11.848 26.46-26.46 26.46zM915.479 550.040c-18.509 0-33.514 15.011-33.514 33.522s15.005 33.516 33.514 33.516c18.512 0 33.519-15.005 33.519-33.516-0.003-18.512-15.008-33.522-33.519-33.522zM711.445 457.471h-398.889c-6.755 0-12.233-5.472-12.233-12.239v-406.224c0-6.764 5.481-12.236 12.233-12.236h398.889c6.752 0 12.233 5.469 12.233 12.236v406.227c0 6.764-5.481 12.236-12.233 12.236zM740.88 855.99c0 7.315-5.926 13.232-13.229 13.232h-431.304c-7.303 0-13.229-5.92-13.229-13.232v-121.712h457.758v121.712z" />
<glyph unicode="&#xe928;" glyph-name="cn-file-storage" d="M950.981 371.769h-877.957c-14.198 0-25.71-11.513-25.71-25.713v-384.343c0-14.203 11.513-25.716 25.71-25.716h877.957c14.198 0 25.708 11.513 25.708 25.716v384.346c-0.003 14.198-11.513 25.71-25.708 25.71zM607.129 206.086h-190.256c-21.299 0-38.567 17.265-38.567 38.564s17.268 38.564 38.567 38.564h190.256c21.299 0 38.567-17.265 38.567-38.564 0-21.297-17.268-38.564-38.567-38.564zM853.948 934.287c0 14.201-11.513 25.713-25.71 25.713h-632.469c-14.198 0-25.71-11.513-25.71-25.713v-493.631h683.89v493.631zM664.977 594.918h-305.954c-21.299 0-38.564 17.265-38.564 38.564s17.268 38.564 38.564 38.564h305.954c21.299 0 38.564-17.265 38.564-38.564 0.003-21.299-17.265-38.564-38.564-38.564zM664.977 749.178h-305.954c-21.299 0-38.564 17.265-38.564 38.564s17.268 38.564 38.564 38.564h305.954c21.299 0 38.564-17.265 38.564-38.564 0.003-21.299-17.265-38.564-38.564-38.564z" />
<glyph unicode="&#xe929;" glyph-name="cn-drawer" d="M977.623 960h-931.247c-15.060 0-27.271-12.214-27.271-27.274v-407.674c0-15.066 12.212-27.274 27.271-27.274h931.247c15.060 0 27.271 12.209 27.271 27.274v407.674c0.003 15.060-12.209 27.274-27.271 27.274zM612.901 784.259h-201.802c-22.592 0-40.908 18.313-40.908 40.905s18.316 40.905 40.908 40.905h201.802c22.592 0 40.905-18.313 40.905-40.905s-18.313-40.905-40.905-40.905zM977.623 398.222h-931.247c-15.060 0-27.271-12.212-27.271-27.277v-407.674c0-15.063 12.212-27.274 27.271-27.274h931.247c15.060 0 27.271 12.212 27.271 27.274v407.674c0.003 15.066-12.209 27.277-27.271 27.277zM612.901 222.482h-201.802c-22.592 0-40.908 18.313-40.908 40.905s18.316 40.905 40.908 40.905h201.802c22.592 0 40.905-18.313 40.905-40.905s-18.313-40.905-40.905-40.905z" />
<glyph unicode="&#xe92a;" glyph-name="cn-sand-time" d="M760.111 557.639c60.115 95.186 93.217 220.762 93.217 353.596v35.221c0 7.48-6.064 13.544-13.541 13.544h-655.57c-7.48 0-13.544-6.064-13.544-13.544v-35.221c0-132.825 33.111-258.398 93.226-353.596 29.248-46.315 63.364-83.16 100.806-109.635-37.442-26.483-71.555-63.323-100.812-109.638-60.115-95.192-93.22-220.768-93.22-353.599v-35.221c0-7.48 6.064-13.544 13.544-13.544h655.573c7.48 0 13.541 6.064 13.541 13.544v35.221c0 132.828-33.106 258.404-93.217 353.599-29.254 46.318-63.367 83.157-100.812 109.638 37.442 26.474 71.555 63.32 100.809 109.635zM360.465 307.062c43.632 59.65 96.781 92.177 151.54 92.177s107.904-32.521 151.525-92.177h-303.065zM754.102 862.47c-6.754-95.773-33.699-185.059-76.456-252.748-45.995-72.842-104.822-112.955-165.642-112.955-60.814 0-119.648 40.116-165.654 112.955-42.754 67.701-69.698 156.99-76.456 252.748h484.208z" />
<glyph unicode="&#xe92b;" glyph-name="cn-dustbin" d="M904.109 927.478h-252.563c-1.802 18.252-17.212 32.522-35.947 32.522h-207.198c-18.741 0-34.142-14.27-35.956-32.522h-252.551c-19.961 0-36.139-16.178-36.139-36.145v-68.661c0-19.967 16.178-36.142 36.139-36.142h784.215c19.961 0 36.139 16.175 36.139 36.142v68.661c0 19.967-16.178 36.145-36.139 36.145zM159.522-27.864c0-19.949 16.171-36.139 36.139-36.139h632.684c19.967 0 36.139 16.187 36.139 36.139v744.97h-704.961v-744.97z" />
<glyph unicode="&#xe92c;" glyph-name="cn-recycle-bin" d="M904.109 927.478h-252.557c-1.808 18.252-17.212 32.522-35.953 32.522h-207.198c-18.741 0-34.142-14.27-35.95-32.522h-252.557c-19.961 0-36.139-16.178-36.139-36.145v-68.661c0-19.967 16.178-36.142 36.139-36.142h784.215c19.961 0 36.139 16.175 36.139 36.142v68.661c0 19.967-16.178 36.145-36.139 36.145zM159.519 717.106v-744.967c0-19.949 16.178-36.139 36.139-36.139h632.684c19.967 0 36.133 16.187 36.133 36.139v744.967h-704.955zM424.108 157.967c0-22.002-17.84-39.845-39.839-39.845-22.011 0-39.839 17.843-39.839 39.845v394.988c0 22.002 17.828 39.839 39.839 39.839 21.999 0 39.839-17.84 39.839-39.839v-394.988zM679.579 157.967c0-22.002-17.84-39.845-39.845-39.845s-39.839 17.843-39.839 39.845v394.988c0 22.002 17.834 39.839 39.839 39.839s39.845-17.84 39.845-39.839v-394.988z" />
<glyph unicode="&#xe92d;" glyph-name="cn-call-mute" d="M986.771 200.895l-125.781 125.774c-49.609 49.616-130.068 49.623-179.677 0.007l-39.074-39.067c-0.902-0.902-1.776-1.87-2.645-2.802l-56.14 56.14-189.669-189.662c249.281-216.178 459.666-263.421 553.934-169.153l39.067 39.071c49.616 49.609 49.623 130.064-0.015 179.691zM847.111 818.372c-19.657 19.657-51.519 19.657-71.18 0l-334.951-334.954-92.18 92.184c0.932 0.862 1.87 1.718 2.798 2.642l39.067 39.074c49.616 49.616 49.609 130.061-0.015 179.691l-125.763 125.759c-49.623 49.645-130.075 49.638-179.691 0.022l-39.074-39.074c-98.999-98.995-41.902-326.177 203.191-591.964l-212.626-212.63c-19.654-19.654-19.654-51.523 0-71.18 9.829-9.829 22.707-14.741 35.588-14.741s25.76 4.912 35.588 14.741l211.699 211.702c0.040-0.036 0.076-0.076 0.113-0.109l192.598 192.591-0.113 0.113 334.951 334.954c19.654 19.654 19.654 51.523 0 71.18z" />
<glyph unicode="&#xe92e;" glyph-name="cn-call-loudspeaker" d="M986.771 200.891l-125.773 125.777c-49.616 49.616-130.067 49.63-179.683 0.007l-39.067-39.074c-0.902-0.895-1.783-1.87-2.653-2.802l-290.788 290.799c0.932 0.862 1.87 1.718 2.802 2.642l39.067 39.074c49.616 49.616 49.609 130.067-0.007 179.683l-125.777 125.766c-49.619 49.645-130.082 49.645-179.69 0.018l-39.074-39.070c-105.676-105.676-33.496-357.398 255.346-646.232 288.834-288.842 540.549-361.055 646.239-255.35l39.074 39.070c49.609 49.616 49.623 130.071-0.015 179.69zM572.56 726.658c120.261 0 218.099-97.838 218.099-218.091 0-27.797 22.532-50.329 50.329-50.329s50.329 22.532 50.329 50.329c0 175.76-142.996 318.749-318.76 318.749-27.797 0-50.329-22.532-50.329-50.329s22.535-50.329 50.333-50.329z" />
<glyph unicode="&#xe92f;" glyph-name="cn-call-answer" d="M986.764 200.891l-125.773 125.777c-49.616 49.616-130.067 49.623-179.676 0.007l-39.074-39.074c-0.902-0.895-1.776-1.87-2.645-2.802l-290.792 290.799c0.932 0.862 1.867 1.718 2.798 2.638l39.070 39.074c49.609 49.616 49.601 130.060-0.011 179.683l-125.77 125.773c-49.627 49.645-130.075 49.638-179.694 0.018l-39.070-39.070c-105.68-105.676-33.499-357.401 255.342-646.236 288.834-288.838 540.541-361.051 646.239-255.346l39.074 39.070c49.619 49.612 49.619 130.071-0.018 179.687z" />
<glyph unicode="&#xe930;" glyph-name="cn-old-telephone" d="M512.001 904.649c-328.055 0.006-512.004-101.934-512.001-221.985v-44.38c-0.003-56.339 45.686-102.037 102.054-102.031h142.846c56.353 0 102.048 45.686 102.048 102.034v44.377c0 1.026-0.053 2.072-0.088 3.095h330.276c-0.038-1.026-0.085-2.043-0.085-3.095v-44.38c0-56.342 45.695-102.034 102.048-102.034h142.846c56.371-0.006 102.054 45.686 102.054 102.034v44.38c0.003 120.027-183.944 221.991-511.999 221.985zM650.998 521.372l-20.527 5.035v63.838c0 27.345-22.243 49.591-49.588 49.591h-137.766c-27.342 0-49.588-22.243-49.588-49.591v-63.838l-20.527-5.035c-253.559-62.204-280.931-260.88-280.931-343.409 0-79.373 16.979-130.858 51.908-157.399 33.786-25.674 84.707-29.213 134.704-29.213h466.637c49.997 0 100.917 3.539 134.707 29.213 34.926 26.542 51.905 78.026 51.905 157.399-0.003 82.53-27.374 281.205-280.933 343.409zM433.268 116.431c0-10.714-8.706-19.425-19.452-19.425h-38.664c-10.749 0-19.449 8.709-19.449 19.425v38.713c0 10.705 8.7 19.425 19.449 19.425h38.664c10.746 0 19.452-8.721 19.452-19.425v-38.713zM433.268 233.945c0-10.711-8.706-19.422-19.452-19.422h-38.664c-10.749 0-19.449 8.712-19.449 19.422v38.716c0 10.719 8.7 19.422 19.449 19.422h38.664c10.746 0 19.452-8.706 19.452-19.422v-38.716zM433.268 351.459c0-10.699-8.706-19.422-19.452-19.422h-38.664c-10.749 0-19.449 8.723-19.449 19.422v38.711c0 10.725 8.7 19.428 19.449 19.428h38.664c10.746 0 19.452-8.706 19.452-19.428v-38.711zM550.782 116.431c0-10.714-8.703-19.425-19.449-19.425h-38.664c-10.749 0-19.452 8.709-19.452 19.425v38.713c0 10.705 8.703 19.425 19.452 19.425h38.664c10.746 0 19.449-8.721 19.449-19.425v-38.713zM550.782 233.945c0-10.711-8.703-19.422-19.449-19.422h-38.664c-10.749 0-19.452 8.712-19.452 19.422v38.716c0 10.719 8.703 19.422 19.452 19.422h38.664c10.746 0 19.449-8.706 19.449-19.422v-38.716zM550.782 351.459c0-10.699-8.703-19.422-19.449-19.422h-38.664c-10.749 0-19.452 8.723-19.452 19.422v38.711c0 10.725 8.703 19.428 19.452 19.428h38.664c10.746 0 19.449-8.706 19.449-19.428v-38.711zM668.296 116.431c0-10.714-8.706-19.425-19.452-19.425h-38.664c-10.746 0-19.449 8.709-19.449 19.425v38.713c0 10.705 8.703 19.425 19.449 19.425h38.664c10.746 0 19.452-8.721 19.452-19.425v-38.713zM668.296 233.945c0-10.711-8.706-19.422-19.452-19.422h-38.664c-10.746 0-19.449 8.712-19.449 19.422v38.716c0 10.719 8.703 19.422 19.449 19.422h38.664c10.746 0 19.452-8.706 19.452-19.422v-38.716zM668.296 351.459c0-10.699-8.706-19.422-19.452-19.422h-38.664c-10.746 0-19.449 8.723-19.449 19.422v38.711c0 10.725 8.703 19.428 19.449 19.428h38.664c10.746 0 19.452-8.706 19.452-19.428v-38.711z" />
<glyph unicode="&#xe931;" glyph-name="cn-land-line-phone" d="M340.881 960h-245.987c-15.797 0-28.606-12.803-28.606-28.612v-966.781c0-15.806 12.806-28.609 28.606-28.609h245.984c15.797 0 28.6 12.8 28.6 28.609v966.781c0.003 15.809-12.803 28.612-28.597 28.612zM933.211 886.504h-514.734v-877.010h514.737c13.531 0 24.498 10.963 24.498 24.501v828.009c0 13.537-10.969 24.501-24.501 24.501zM606.109 144.939c0-11.081-8.997-20.081-20.105-20.081h-39.969c-11.111 0-20.108 9-20.108 20.081v40.017c0 11.066 8.997 20.084 20.108 20.084h39.969c11.108 0 20.105-9.015 20.105-20.084v-40.017zM606.109 266.416c0-11.072-8.997-20.078-20.105-20.078h-39.969c-11.111 0-20.108 9.003-20.108 20.078v40.020c0 11.081 8.997 20.084 20.108 20.084h39.969c11.108 0 20.105-9.003 20.105-20.084v-40.020zM606.109 387.899c0-11.060-8.997-20.084-20.105-20.084h-39.969c-11.111 0-20.108 9.021-20.108 20.084v40.017c0 11.084 8.997 20.078 20.108 20.078h39.969c11.108 0 20.105-8.997 20.105-20.078v-40.017zM727.589 144.939c0-11.081-8.997-20.081-20.105-20.081h-39.966c-11.111 0-20.108 9-20.108 20.081v40.017c0 11.066 8.997 20.084 20.108 20.084h39.966c11.108 0 20.105-9.015 20.105-20.084v-40.017zM727.589 266.416c0-11.072-8.997-20.078-20.105-20.078h-39.966c-11.111 0-20.108 9.003-20.108 20.078v40.020c0 11.081 8.997 20.084 20.108 20.084h39.966c11.108 0 20.105-9.003 20.105-20.084v-40.020zM727.589 387.899c0-11.060-8.997-20.084-20.105-20.084h-39.966c-11.111 0-20.108 9.021-20.108 20.084v40.017c0 11.084 8.997 20.078 20.108 20.078h39.966c11.108 0 20.105-8.997 20.105-20.078v-40.017zM849.066 144.939c0-11.081-8.997-20.081-20.105-20.081h-39.966c-11.114 0-20.108 9-20.108 20.081v40.017c0 11.066 8.994 20.084 20.108 20.084h39.966c11.108 0 20.105-9.015 20.105-20.084v-40.017zM849.066 266.416c0-11.072-8.997-20.078-20.105-20.078h-39.966c-11.114 0-20.108 9.003-20.108 20.078v40.020c0 11.081 8.994 20.084 20.108 20.084h39.966c11.108 0 20.105-9.003 20.105-20.084v-40.020zM849.066 387.899c0-11.060-8.997-20.084-20.105-20.084h-39.966c-11.114 0-20.108 9.021-20.108 20.084v40.017c0 11.084 8.994 20.078 20.108 20.078h39.966c11.108 0 20.105-8.997 20.105-20.078v-40.017zM867.017 681.857c0-11.263-9.13-20.392-20.392-20.392h-325.32c-11.263 0-20.392 9.13-20.392 20.392v86.523c0 11.263 9.13 20.392 20.392 20.392h325.323c11.263 0 20.392-9.13 20.392-20.392v-86.523z" />
<glyph unicode="&#xe932;" glyph-name="cn-wall-clock" d="M512 813.201c-201.374 0-365.201-163.83-365.201-365.204s163.827-365.201 365.201-365.201c201.374 0 365.204 163.827 365.204 365.201s-163.83 365.204-365.204 365.204zM704.085 410.089h-192.085c-20.938 0-37.911 16.974-37.911 37.909v233.738c0 20.938 16.971 37.909 37.911 37.909 20.938 0 37.909-16.974 37.909-37.909v-195.827h154.177c20.938 0 37.911-16.974 37.911-37.911-0.003-20.935-16.974-37.909-37.911-37.909zM512 960c-282.316 0-512-229.684-512-512.003 0-282.316 229.684-511.997 512-511.997s512 229.681 512 511.997c0 282.319-229.684 512.003-512 512.003zM512 14.77c-238.884 0-433.23 194.346-433.23 433.23 0 238.887 194.343 433.236 433.23 433.236 238.884 0 433.23-194.349 433.23-433.236 0-238.884-194.346-433.23-433.23-433.23z" />
<glyph unicode="&#xe933;" glyph-name="cn-alarm" d="M795.436 211.714c64.684 69.277 104.291 162.269 104.291 264.529 0 214.138-173.6 387.725-387.728 387.725-214.135 0-387.728-173.587-387.728-387.725 0-102.259 39.607-195.252 104.287-264.529l-113.984-113.984c-23.295-23.289-23.295-61.058-0.003-84.356 11.651-11.648 26.911-17.466 42.181-17.466 15.264 0 30.531 5.825 42.178 17.466l124.199 124.199c55.889-31.233 120.292-49.061 188.867-49.061s132.974 17.829 188.867 49.061l124.199-124.199c11.648-11.648 26.911-17.466 42.178-17.466s30.531 5.822 42.178 17.466c23.295 23.298 23.295 61.068 0 84.356l-113.981 113.984zM470.532 476.242v255.673c0 22.904 18.566 41.467 41.467 41.467 22.904 0 41.467-18.563 41.467-41.467v-214.206h168.641c22.904 0 41.467-18.563 41.467-41.467s-18.566-41.467-41.467-41.467h-210.108c-22.904 0-41.467 18.563-41.467 41.467zM802.956 900.097c-34.027 0-66.246-7.708-95.040-21.438 44.067-21.497 84.738-50.384 120.424-86.071 73.909-73.909 118.775-169.12 128.86-271.79 41.188 40.144 66.799 96.195 66.799 158.255 0 122.084-98.97 221.044-221.044 221.044zM316.084 878.658c-28.794 13.734-61.013 21.438-95.037 21.438-122.080 0-221.047-98.96-221.047-221.047 0-62.064 25.611-118.112 66.799-158.259 10.085 102.67 54.948 197.888 128.857 271.793 35.69 35.69 76.361 64.577 120.428 86.074z" />
<glyph unicode="&#xe934;" glyph-name="cn-wrist-watch" d="M665.767 711.636v221.234c0 14.985-12.145 27.13-27.136 27.13h-253.267c-14.991 0-27.136-12.145-27.136-27.13v-221.237c45.185 26.459 97.736 41.651 153.771 41.651s108.583-15.188 153.768-41.648zM358.23 184.376v-221.242c0-14.985 12.145-27.136 27.136-27.136h253.267c14.991 0 27.136 12.151 27.136 27.136v221.239c-45.185-26.456-97.73-41.648-153.765-41.648s-108.589 15.191-153.774 41.651zM512.001 727.507c-154.115 0-279.5-125.384-279.5-279.505 0-154.115 125.381-279.5 279.5-279.5 154.115 0 279.5 125.381 279.5 279.5-0.003 154.121-125.384 279.505-279.5 279.505zM649.493 420.868h-137.491c-14.991 0-27.136 12.148-27.136 27.136v167.314c0 14.988 12.145 27.136 27.136 27.136s27.136-12.148 27.136-27.136v-140.178h110.358c14.988 0 27.136-12.148 27.136-27.136-0.003-14.988-12.151-27.136-27.139-27.136z" />
<glyph unicode="&#xe935;" glyph-name="cn-key" d="M927.072 863.003c-62.561 62.55-145.726 96.997-234.183 96.997-88.461 0-171.629-34.448-234.176-96.997-62.561-62.553-97.012-145.722-97.012-234.186 0-45.48 9.171-89.533 26.519-130.13l-364.896-364.896c-6.628-6.621-10.71-15.364-11.539-24.687l-11.55-129.623c-1.054-11.786 3.169-23.423 11.532-31.782 8.363-8.363 19.996-12.586 31.782-11.536l129.63 11.547c9.323 0.833 18.059 4.915 24.687 11.547l39.305 39.308c-0.268 1.090-0.46 2.209-0.54 3.365l-6.443 93.937c-0.38 5.567 1.662 11.029 5.61 14.973 3.944 3.944 9.366 5.958 14.969 5.61l93.944-6.436c1.155-0.076 2.278-0.272 3.368-0.543l30.851 30.851c-0.272 1.090-0.464 2.213-0.543 3.372l-6.443 93.937c-0.38 5.567 1.666 11.029 5.61 14.973 3.944 3.948 9.395 5.98 14.973 5.61l93.944-6.443c1.152-0.076 2.278-0.272 3.368-0.543l72.941 72.944c40.598-17.349 84.654-26.516 130.126-26.516 88.464 0 171.629 34.448 234.183 96.994 129.116 129.109 129.116 339.217-0.018 468.355zM789.321 532.38c-25.755-25.751-60-39.935-96.429-39.935-36.425 0-70.67 14.183-96.425 39.942-25.759 25.755-39.946 60.003-39.946 96.429 0 36.429 14.187 70.674 39.946 96.429 25.748 25.755 59.996 39.938 96.421 39.938 36.429 0 70.674-14.183 96.429-39.938 53.173-53.173 53.173-139.695 0.004-192.864z" />
<glyph unicode="&#xe936;" glyph-name="cn-files" d="M431.218 960h-331.286c-15.12 0-27.381-12.255-27.381-27.381v-138.843h219.972c8.020 0 14.523-6.5 14.523-14.535v-88.63c0-8.020-6.5-14.532-14.523-14.532h-219.972v-110.384h219.972c8.020 0 14.523-6.506 14.523-14.535v-88.63c0-8.026-6.5-14.535-14.523-14.535h-219.972v-484.619c0-15.126 12.261-27.381 27.381-27.381h331.283c15.126 0 27.381 12.255 27.381 27.381v969.244c0 15.126-12.255 27.381-27.378 27.381zM265.576 56.314c-52.926 0-95.831 42.905-95.831 95.828 0 52.926 42.905 95.831 95.831 95.831s95.831-42.905 95.831-95.831c0-52.923-42.905-95.828-95.831-95.828zM924.065 960h-331.283c-15.126 0-27.381-12.255-27.381-27.381v-138.843h219.966c8.026 0 14.529-6.5 14.529-14.535v-88.63c0-8.020-6.5-14.532-14.529-14.532h-219.966v-110.384h219.966c8.026 0 14.529-6.506 14.529-14.535v-88.63c0-8.026-6.5-14.535-14.529-14.535h-219.966v-484.619c0-15.126 12.255-27.381 27.381-27.381h331.283c15.126 0 27.381 12.255 27.381 27.381v969.244c0 15.126-12.255 27.381-27.381 27.381zM758.424 56.314c-52.926 0-95.831 42.905-95.831 95.828 0 52.926 42.905 95.831 95.831 95.831s95.831-42.905 95.831-95.831c0.003-52.923-42.905-95.828-95.831-95.828z" />
<glyph unicode="&#xe937;" glyph-name="cn-paper-plane" d="M1017.525 903.756c-5.407 4.846-13.063 6.271-19.859 3.694l-985.125-373.746c-7.074-2.684-11.943-9.224-12.49-16.767-0.547-7.54 3.328-14.718 9.939-18.395l316.957-176.29c6.206-3.448 13.817-3.241 19.826 0.554l236.662 149.49c0 0-173.897-170.407-176.966-173.603s-7.109-6.132-7.109-13.785c0-9.091-0.010-278.092-0.010-278.092-0.036-7.899 4.714-15.041 12.014-18.055 2.402-0.991 4.921-1.473 7.417-1.473 5.102 0 10.114 2.010 13.837 5.782l163.495 165.642 186.468-109.695c3.027-1.781 6.433-2.684 9.855-2.684 2.525 0 5.060 0.492 7.453 1.486 5.636 2.341 9.848 7.194 11.37 13.102l212.128 823.504c1.807 7.035-0.45 14.491-5.863 19.331z" />
<glyph unicode="&#xe938;" glyph-name="cn-paint-brush" d="M1004.247 954.642c-46.201 46.201-383.497-216.194-575.461-408.161-46.534-46.531-79.468-85.33-102.282-117.958 31.331-9.7 60.725-27.399 86.284-52.965 10.953-10.953 21.211-23.338 30.494-36.803 14.294-20.749 24.313-42.547 30.227-65.049 33.565 22.891 73.832 56.748 122.581 105.482 191.964 191.957 454.359 529.253 408.158 575.454zM156.948 350.647c-176.788-102.747-18.306-241.306-142.556-365.548 89.695-89.702 231.845-43.623 310.855 35.394 73.332 73.319 132.19 178.1 64.997 275.673-56.938 82.671-146.929 104.673-233.296 54.481z" />
<glyph unicode="&#xe939;" glyph-name="cn-pin" d="M940.521 426.947c-22.124 22.121-57.995 22.124-80.116-0.003l-314.969-314.976c-40.414-40.411-94.141-62.668-151.29-62.668-57.146 0-110.876 22.257-151.29 62.671s-62.671 94.141-62.671 151.29c0 57.149 22.26 110.882 62.671 151.293l404.421 404.425c37.038 37.034 97.304 37.031 134.338 0.003 17.944-17.944 27.824-41.801 27.824-67.176 0-25.371-9.881-49.222-27.824-67.169l-343.147-343.16c-22.121-22.121-22.121-57.992 0.003-80.116 22.124-22.121 57.992-22.124 80.116 0.003l343.147 343.16c39.345 39.342 61.012 91.646 61.012 147.285 0 55.632-21.667 107.94-61.012 147.285-81.208 81.204-213.352 81.208-294.566-0.003l-404.425-404.421c-61.816-61.812-95.855-143.999-95.855-231.409 0-87.414 34.040-169.593 95.855-231.406 61.812-61.809 143.995-95.852 231.406-95.852s169.593 34.043 231.403 95.855l314.969 314.976c22.124 22.121 22.124 57.988 0 80.112z" />
<glyph unicode="&#xe93a;" glyph-name="cn-eraser" d="M1011.437 629.892l-317.545 317.542c-16.752 16.749-43.913 16.749-60.668 0l-620.662-620.659c-16.749-16.749-16.749-43.916 0-60.668l317.542-317.54c16.752-16.755 43.913-16.755 60.668 0l620.662 620.656c16.752 16.755 16.752 43.916 0.003 60.668zM679.736 358.864l-256.869 256.875 240.694 240.697 256.869-256.872-240.694-240.7z" />
<glyph unicode="&#xe93b;" glyph-name="cn-scissor" d="M1014.756 638.716l-13.877 22.531c-3.438 5.586-10.616 7.548-16.418 4.503l-536.541-281.785 281.785 536.541c3.048 5.806 1.080 12.98-4.503 16.418l-22.528 13.877c-9.904 6.104-20.884 9.198-32.631 9.198-27.578 0-51.99-17.321-61.188-23.845-23.558-16.717-50.656-42.677-80.547-77.161-54.89-63.335-113.572-149.494-153.146-224.854-18.696-35.601-32.275-67.381-40.917-95.796-35.893 26.73-79.239 41.186-124.804 41.186-55.955 0-108.565-21.79-148.133-61.359-81.675-81.684-81.675-214.586 0-296.264 39.569-39.563 92.178-61.353 148.133-61.353 5.308 0 10.569 0.258 15.811 0.648-4.382-58.754 15.782-119.013 60.612-163.843 39.566-39.569 92.172-61.359 148.131-61.359s108.568 21.79 148.136 61.356c74.292 74.295 80.987 190.961 20.126 272.923 28.394 8.633 60.163 22.195 95.836 40.932 75.36 39.583 161.522 98.265 224.854 153.149 34.484 29.888 60.444 56.986 77.161 80.544 25.735 36.258 30.66 67.824 14.65 93.81zM209.443 261.964c-28.872 0-56.013 11.244-76.423 31.656-42.142 42.139-42.142 110.706 0 152.848 20.412 20.415 47.554 31.659 76.423 31.659s56.013-11.244 76.423-31.656c42.139-42.142 42.139-110.712 0-152.851-20.409-20.415-47.551-31.656-76.423-31.656zM510.421 69.064c-20.412-20.415-47.556-31.656-76.425-31.656s-56.007 11.244-76.42 31.656c-42.142 42.142-42.142 110.706 0 152.848 20.412 20.412 47.554 31.656 76.42 31.656 28.872 0 56.016-11.244 76.425-31.659 42.144-42.139 42.144-110.704 0-152.845z" />
<glyph unicode="&#xe93c;" glyph-name="cn-pencil-scale" d="M151.174 680.574h262.799v-448.034h-262.799v448.034zM149.826 152.387v-195.759c0-11.109 9.008-20.12 20.126-20.12h225.242c11.115 0 20.126 9.005 20.126 20.114v195.771l-265.494-0.006zM300.183 949.297c-3.626 6.308-10.342 10.198-17.611 10.198-7.266-0.006-13.985-3.89-17.611-10.192l-113.799-197.783 262.817 0.006-113.796 197.772zM847.083 960h-307.472c-14.961 0-27.086-12.131-27.086-27.092v-84.066h153.73c14.961 0 27.098-12.125 27.098-27.092v-54.181c0-14.966-12.131-27.092-27.098-27.098l-153.73 0.006v-135.462h153.73c14.966 0 27.098-12.125 27.098-27.092v-54.181c0-14.966-12.131-27.092-27.098-27.092h-153.73v-135.459h153.73c14.961 0 27.098-12.125 27.098-27.092v-54.181c0-14.966-12.131-27.092-27.098-27.092h-153.73v-289.741c-0.006-14.961 12.125-27.092 27.086-27.086l307.472-0.006c14.961 0 27.092 12.131 27.092 27.086v969.825c0 14.961-12.125 27.092-27.092 27.092zM775.268-9.349c-25.449 0-46.074 20.628-46.074 46.080-0.006 25.443 20.625 46.074 46.074 46.074s46.080-20.628 46.074-46.080c0.006-25.443-20.619-46.074-46.074-46.074z" />
<glyph unicode="&#xe93d;" glyph-name="cn-scale" d="M1015.506 718.971l-232.541 232.541c-11.319 11.319-29.662 11.319-40.975 0l-63.583-63.583 116.271-116.277c11.316-11.313 11.326-29.659 0-40.975l-40.975-40.975c-11.319-11.326-29.662-11.326-40.982 0l-116.274 116.267-102.447-102.45 116.277-116.271c11.313-11.313 11.313-29.662 0-40.982l-40.982-40.975c-11.319-11.326-29.662-11.319-40.975-0.006l-116.28 116.274-102.447-102.447 116.274-116.274c11.313-11.319 11.319-29.662 0-40.975l-40.985-40.982c-11.313-11.326-29.662-11.319-40.979 0l-116.271 116.271-219.141-219.138c-11.319-11.313-11.319-29.662 0-40.979l232.547-232.547c11.313-11.316 29.662-11.316 40.979 0l733.489 733.501c11.319 11.31 11.326 29.662 0 40.982zM297.752 40.14c-19.242-19.248-50.447-19.248-69.698 0-19.242 19.248-19.242 50.447 0.006 69.701 19.242 19.242 50.45 19.242 69.692 0 19.248-19.254 19.248-50.453 0-69.701z" />
<glyph unicode="&#xe93e;" glyph-name="cn-pen-point" d="M1017.454 700.456l-252.994 252.994c-4.553 4.549-10.85 6.907-17.272 6.5-6.425-0.425-12.359-3.6-16.274-8.709l-186.515-243.411c-6.818-8.903-5.99-21.474 1.936-29.404l196.087-196.091c4.337-4.337 10.057-6.549 15.814-6.549 4.769 0 9.555 1.522 13.587 4.613l243.418 186.508c5.108 3.912 8.287 9.845 8.709 16.274 0.425 6.425-1.947 12.723-6.496 17.276zM488.635 636.43c-7.735 7.739-19.934 8.741-28.827 2.365l-401.47-287.67c-5.031-3.607-8.341-9.134-9.144-15.272l-49.002-374.594c-0.903-6.886 1.448-13.799 6.358-18.706 4.22-4.216 9.916-6.549 15.803-6.549 0.963 0 1.933 0.064 2.899 0.191l374.601 48.995c6.135 0.804 11.665 4.114 15.272 9.144l287.666 401.478c6.372 8.893 5.37 21.088-2.365 28.827l-211.791 211.791zM383.95 228.272c-25.315-25.319-66.356-25.312-91.675 0.007-25.319 25.312-25.319 66.349-0.004 91.675 25.315 25.312 66.356 25.305 91.675-0.007 25.319-25.319 25.319-66.356 0.004-91.675z" />
<glyph unicode="&#xe93f;" glyph-name="cn-feather" d="M987.636 952.933c-71.158 71.161-668.34-418.571-668.34-418.571-25.636-19.058-44.229-46.763-50.388-75.041l-39.567-181.922c-3.412-15.757-2.747-30.732 1.654-43.634 141.016 142.269 291.267 277.841 456.339 388.15-90.752-72.744-503.576-456.13-637.051-612.33l-20.986-73.587 74.865 27.828c60.087 76.802 121.967 153.758 186.464 228.698 6.904-0.157 14.1 0.511 21.482 2.112l181.919 39.557c28.284 6.159 55.98 24.755 75.044 50.388 0 0 489.732 597.186 418.565 668.353z" />
<glyph unicode="&#xe940;" glyph-name="cn-pen" d="M232.345 329.025c-113.977-150.947-184.608-277.82-209.925-377.086-1.111-4.375 0.158-9.007 3.348-12.197 3.184-3.184 7.819-4.456 12.185-3.348 99.278 25.32 226.148 95.954 377.098 209.931 111.943 84.539 196.172 162.789 197.011 163.571l-216.14 216.143c-0.788-0.836-79.041-85.065-163.577-197.014zM995.21 726.156l-183.028 183.022c-9.034 9.028-23.665 9.028-32.693 0.006l-334.31-334.313 215.719-215.713 334.31 334.307c9.022 9.025 9.028 23.656 0.003 32.69zM741.775 943.867c-21.512 21.512-56.382 21.506-77.891 0l-237.042-237.042c-21.512-21.512-21.518-56.382 0-77.894l314.934 314.937z" />
<glyph unicode="&#xe941;" glyph-name="cn-crayons" d="M1.33 677.832h259.696v-442.757h-259.696v442.757zM0-37.581c0-10.972 8.895-19.867 19.879-19.873h222.593c10.984 0.006 19.885 8.901 19.885 19.873v193.46l-262.357-0.006v-193.454zM148.582 943.386c-3.588 6.228-10.225 10.068-17.414 10.068-7.159-0.006-13.814-3.843-17.396-10.068l-112.46-195.446 259.717 0.012-112.448 195.434zM382.159 677.832h259.685v-442.757h-259.685v442.757zM380.814-37.581c0-10.972 8.895-19.867 19.885-19.873h222.593c10.99 0.006 19.891 8.901 19.891 19.873v193.46l-262.369-0.006v-193.454zM529.396 943.386c-3.582 6.228-10.214 10.068-17.402 10.068-7.171-0.006-13.814-3.843-17.396-10.068l-112.451-195.446 259.699 0.012-112.451 195.434zM762.973 677.832h259.696v-442.757h-259.696v442.757zM761.643 155.873v-193.454c0-10.972 8.895-19.867 19.873-19.873h222.605c10.978 0.006 19.879 8.901 19.879 19.873v193.46l-262.357-0.006zM910.222 943.386c-3.594 6.228-10.225 10.068-17.414 10.068-7.165-0.006-13.802-3.843-17.396-10.068l-112.451-195.446 259.711 0.012-112.451 195.434z" />
<glyph unicode="&#xe942;" glyph-name="cn-pencil" d="M372.084 74.552l-233.522 233.522 398.136 398.136 233.522-233.522-398.136-398.136zM1016.599 752.427l-200.172 200.165c-9.88 9.874-25.878 9.874-35.752 0.007l-173.96-173.96 235.924-235.921 173.96 173.96c9.867 9.867 9.871 25.872 0 35.749zM0.882-31.824c-2.381-8.822 0.134-18.252 6.595-24.703 6.457-6.451 15.877-8.969 24.699-6.598l276.87 74.627-233.54 233.536-74.624-276.863z" />
<glyph unicode="&#xe943;" glyph-name="cn-page-linked" d="M37.615 312.712h360.531c9.644 0 17.456 7.822 17.456 17.461v522.91c0 9.639-7.814 17.456-17.456 17.456h-360.531c-9.65 0-17.461-7.817-17.461-17.456v-522.91c0-9.639 7.811-17.461 17.461-17.461zM93.479 732.407c0 9.644 7.819 17.461 17.464 17.461h213.876c9.644 0 17.458-7.817 17.458-17.461v-41.023c0-9.644-7.817-17.461-17.458-17.461h-213.876c-9.644 0-17.464 7.817-17.464 17.461v41.023zM93.479 575.274c0 9.634 7.819 17.461 17.464 17.461h213.876c9.644 0 17.458-7.827 17.458-17.461v-41.028c0-9.644-7.817-17.461-17.458-17.461h-213.876c-9.644 0-17.464 7.817-17.464 17.461v41.028zM625.859 312.712h360.528c9.647 0 17.466 7.822 17.466 17.461v522.91c0 9.639-7.819 17.456-17.466 17.456h-360.528c-9.644 0-17.464-7.817-17.464-17.456v-522.91c0-9.639 7.819-17.461 17.464-17.461zM681.725 732.407c0 9.644 7.814 17.461 17.461 17.461h213.876c9.644 0 17.456-7.817 17.456-17.461v-41.023c0-9.644-7.811-17.461-17.456-17.461h-213.876c-9.647 0-17.461 7.817-17.461 17.461v41.023zM681.725 575.274c0 9.634 7.814 17.461 17.461 17.461h213.876c9.644 0 17.456-7.827 17.456-17.461v-41.028c0-9.644-7.811-17.461-17.456-17.461h-213.876c-9.647 0-17.461 7.817-17.461 17.461v41.028zM999.958 104.801h-150.175v139.55h-100.975v-139.55h-473.617v139.55h-100.973v-139.55h-150.177c-13.279 0-24.042-10.771-24.042-24.047v-31.251c0-13.282 10.763-24.042 24.042-24.042h975.916c13.276 0 24.042 10.76 24.042 24.042v31.251c0 13.276-10.765 24.047-24.042 24.047z" />
<glyph unicode="&#xe944;" glyph-name="cn-folder-linked" d="M431.9 411.466c7.924 0 14.348 6.421 14.348 14.351v258.28c0 7.919-6.421 14.343-14.348 14.343h-179.362v51.661c0 7.927-6.421 14.348-14.348 14.348h-223.847c-7.919 0-14.343-6.421-14.343-14.348v-324.284c0-7.927 6.424-14.351 14.343-14.351h417.557zM1009.647 698.44h-179.359v51.661c0 7.927-6.424 14.348-14.353 14.348h-223.84c-7.924 0-14.348-6.421-14.348-14.348v-324.284c0-7.927 6.421-14.351 14.348-14.351h417.552c7.929 0 14.353 6.421 14.353 14.351v258.28c0 7.922-6.424 14.343-14.353 14.343zM988.697 209.063h-146.71v136.33h-98.646v-136.33h-462.687v136.33h-98.648v-136.33h-146.71c-12.975 0-23.487-10.517-23.487-23.487v-30.533c0-12.973 10.512-23.49 23.487-23.49h953.401c12.97 0 23.487 10.517 23.487 23.49v30.533c0 12.97-10.517 23.487-23.487 23.487z" />
<glyph unicode="&#xe945;" glyph-name="cn-page-connected" d="M300.37 287.79h423.256c10.606 0 19.204 8.598 19.204 19.204v633.802c0 10.612-8.601 19.204-19.204 19.204h-212.229v-196.853c0-18.661-15.19-33.837-33.851-33.837h-196.382v-422.316c0.003-10.606 8.603-19.204 19.207-19.204zM444.285 813.474v146.526l-163.118-163.118h146.521c9.171 0 16.597 7.427 16.597 16.592zM917.153 20.642h-351.289v159.135h-107.726v-159.135h-351.289c-14.169 0-25.654-11.479-25.654-25.649v-33.345c0-14.169 11.485-25.649 25.654-25.649h810.305c14.169 0 25.654 11.479 25.654 25.649v33.345c-0.003 14.169-11.488 25.649-25.654 25.649z" />
<glyph unicode="&#xe946;" glyph-name="cn-folder-connected" d="M131.035 315.902h761.921c14.464 0 26.189 11.724 26.189 26.183v471.288c0 14.462-11.724 26.189-26.189 26.189h-327.282v94.255c0 14.464-11.724 26.183-26.183 26.183h-408.456c-14.459 0-26.177-11.719-26.177-26.183v-591.735c0.003-14.456 11.722-26.18 26.177-26.18zM925.597 22.401h-358.611v162.463h-109.969v-162.463h-358.614c-14.464 0-26.183-11.719-26.183-26.18v-34.037c0-14.462 11.719-26.183 26.183-26.183h827.193c14.464 0 26.183 11.722 26.183 26.183v34.037c-0.003 14.462-11.722 26.18-26.183 26.18z" />
<glyph unicode="&#xe947;" glyph-name="cn-storage-connected" d="M144.774 626.845h734.45c10.459 0 18.929 8.476 18.929 18.926v295.297c0 10.453-8.47 18.932-18.929 18.932h-734.45c-10.453 0-18.929-8.478-18.929-18.932v-295.297c0.003-10.451 8.476-18.926 18.929-18.926zM511.999 869.135c41.821 0 75.713-33.9 75.713-75.716 0-41.813-33.894-75.716-75.713-75.716-41.816 0-75.716 33.902-75.716 75.716 0.003 41.816 33.902 75.716 75.716 75.716zM311.354 869.135c41.821 0 75.718-33.9 75.718-75.716 0-41.813-33.9-75.716-75.718-75.716-41.816 0-75.713 33.902-75.713 75.716-0.003 41.816 33.897 75.716 75.713 75.716zM144.774 241.669h734.45c10.459 0 18.929 8.476 18.929 18.929v295.3c0 10.448-8.47 18.923-18.929 18.923h-734.45c-10.453 0-18.929-8.476-18.929-18.923v-295.3c0.003-10.453 8.476-18.929 18.929-18.929zM511.999 483.962c41.821 0 75.713-33.9 75.713-75.713 0-41.816-33.894-75.713-75.713-75.713-41.816 0-75.716 33.9-75.716 75.713 0.003 41.813 33.902 75.713 75.716 75.713zM311.354 483.962c41.821 0 75.718-33.9 75.718-75.713 0-41.816-33.9-75.713-75.718-75.713-41.816 0-75.713 33.9-75.713 75.713-0.003 41.813 33.897 75.713 75.713 75.713zM905.542 18.213h-341.225v154.581h-104.633v-154.581h-341.225c-13.758 0-24.913-11.156-24.913-24.911v-32.389c0-13.758 11.156-24.913 24.913-24.913h787.081c13.763 0 24.913 11.156 24.913 24.913v32.389c0 13.755-11.15 24.911-24.911 24.911z" />
<glyph unicode="&#xe948;" glyph-name="cn-iphone-connector" d="M829.107 772.627h-634.201c-19.898 0-36.032-16.138-36.032-36.039v-356.734c0-19.898 16.138-36.032 36.032-36.032h634.201c19.891 0 36.019 16.138 36.019 36.032v356.734c0.003 19.904-16.128 36.039-36.019 36.039zM796.665 923.968c0 19.901-16.131 36.032-36.025 36.032h-497.266c-19.904 0-36.032-16.135-36.032-36.032v-104.5h569.323v104.5zM439.938 195.208c0-63.452-51.62-115.076-115.073-115.076h-156.899v-144.132h156.899c142.926 0 259.204 116.278 259.204 259.208v60.262h-144.132v-60.262z" />
<glyph unicode="&#xe949;" glyph-name="cn-usb-pen-drive" d="M765.251 616.916h-506.503c-9.275 0-16.797-7.518-16.797-16.797v-394.066c0-148.91 121.143-270.053 270.046-270.053 148.907 0 270.050 121.143 270.050 270.053v394.066c0 9.279-7.515 16.797-16.797 16.797zM701.035 928.226c0 17.548-14.219 31.774-31.771 31.774h-314.528c-17.544 0-31.771-14.226-31.771-31.774v-254.611h378.066v254.611zM483.404 786.058c0-1.85-1.502-3.363-3.363-3.363h-88.58c-1.861 0-3.363 1.513-3.363 3.363v88.59c0 1.854 1.502 3.359 3.363 3.359h88.58c1.864 0 3.363-1.506 3.363-3.359v-88.59zM635.905 786.058c0-1.85-1.502-3.363-3.366-3.363h-88.58c-1.864 0-3.366 1.513-3.366 3.363v88.59c0 1.854 1.502 3.359 3.366 3.359h88.58c1.864 0 3.366-1.506 3.366-3.359v-88.59z" />
<glyph unicode="&#xe94a;" glyph-name="cn-pin-plug" d="M857.076 725.958h-125.701v221.026c0 7.186-5.829 13.016-13.016 13.016h-99.022c-7.186 0-13.016-5.829-13.016-13.016v-221.026h-188.645v221.026c0 7.186-5.829 13.016-13.016 13.016h-99.022c-7.186 0-13.016-5.829-13.016-13.016v-221.026h-125.701c-7.369 0-13.34-5.98-13.34-13.345v-355.482c0-72.108 58.664-130.772 130.769-130.772h455.297c72.105 0 130.769 58.661 130.769 130.772v355.48c-0.003 7.369-5.974 13.348-13.343 13.348zM450.62 170.849h122.763v-234.849h-122.763v234.849z" />
<glyph unicode="&#xe94b;" glyph-name="cn-pin-plug1" d="M818.58 637.829h-51.214v196.372c0 6.385-5.179 11.564-11.564 11.564h-87.972c-6.385 0-11.564-5.179-11.564-11.564v-196.372h-88.715v310.608c0 6.385-5.179 11.564-11.564 11.564h-87.967c-6.385 0-11.564-5.179-11.564-11.564v-310.608h-88.715v196.372c0 6.385-5.179 11.564-11.564 11.564h-87.972c-6.385 0-11.564-5.179-11.564-11.564v-196.372h-51.217c-6.547 0-11.857-5.307-11.857-11.852v-315.828c0-64.066 52.119-116.18 116.183-116.18h404.505c64.061 0 116.178 52.114 116.178 116.18v315.828c0 6.544-5.307 11.852-11.854 11.852zM457.465 144.655h109.070v-208.658h-109.070v208.658z" />
<glyph unicode="&#xe94c;" glyph-name="cn-paint-palette" d="M971.162 795.18c-118.312 183.197-428.673 147.491-586.288 46.083-198.79-127.901 101.799-211.672 42.418-390.895 82.158-72.228 155.776-148.95 223.648-233.206 28.846 6.012 54.913 14.203 75.103 23.755 235.967 111.68 382.068 341.845 245.119 554.262zM543.793 642.375c-43.614 0-78.971 35.355-78.971 78.974 0 43.617 35.358 78.974 78.971 78.974s78.977-35.358 78.977-78.974c0-43.62-35.36-78.974-78.977-78.974zM689.069 333.972c-29.074 0-52.647 23.573-52.647 52.65 0 29.080 23.576 52.65 52.647 52.65 29.080 0 52.65-23.573 52.65-52.65-0.003-29.074-23.57-52.65-52.65-52.65zM748.156 747.672c0 29.080 23.57 52.65 52.647 52.65 29.074 0 52.647-23.57 52.647-52.65s-23.576-52.647-52.647-52.647c-29.077 0-52.647 23.567-52.647 52.647zM845.685 499.82c-29.077 0-52.652 23.567-52.652 52.647s23.576 52.65 52.652 52.65c29.074 0 52.647-23.57 52.647-52.65 0.003-29.080-23.573-52.647-52.647-52.647zM724.627 26.091c-42.415 64.749-86.811 124.958-134.096 181.69 0.562 0.368 0.514 0.545-0.385 0.468-57.477 68.917-119.237 132.692-186.98 193.152-28.315 25.271-57.668 49.966-88.198 74.218l-105.842 113.139c-1.462 1.579-3.503 2.492-5.653 2.535-0.057 0-0.108 0-0.163 0-2.084 0-4.1-0.831-5.576-2.312l-89.783-89.786c-1.522-1.519-2.352-3.591-2.315-5.741 0.046-2.147 0.965-4.185 2.544-5.647l113.096-105.802c130.159-163.838 273.066-294.066 449.565-409.7 1.322-0.868 2.829-1.293 4.328-1.293 2.041 0 4.062 0.788 5.587 2.312l42.852 42.854c2.641 2.646 3.072 6.783 1.019 9.912zM183.009 614.438l-80.176 80.182c-1.542 1.542-3.563 2.315-5.584 2.315s-4.042-0.774-5.584-2.315l-16.31-16.307c-2.843-2.841-3.095-7.371-0.591-10.512l40.565-50.765-50.768 40.556c-1.447 1.156-3.189 1.724-4.925 1.724-2.030 0-4.048-0.777-5.581-2.312l-18.111-18.103c-2.843-2.843-3.095-7.371-0.585-10.512l26.921-33.693-33.696 26.916c-1.45 1.156-3.195 1.727-4.93 1.727-2.033 0-4.054-0.779-5.587-2.312l-15.756-15.756c-3.083-3.086-3.078-8.088 0-11.171l80.188-80.182c1.542-1.542 3.563-2.315 5.584-2.315s4.042 0.771 5.584 2.315l89.343 89.349c3.083 3.089 3.083 8.088 0 11.171z" />
<glyph unicode="&#xe94d;" glyph-name="cn-wifi-low-signal" d="M739.15 258.7c0-125.454-101.701-227.155-227.155-227.155s-227.155 101.701-227.155 227.155c0 125.454 101.701 227.155 227.155 227.155s227.155-101.701 227.155-227.155zM1005.19 610.453c-113.6 159.054-297.972 254.002-493.19 254.002-195.212 0-379.574-94.954-493.184-254.002-32.409-45.366-21.898-108.426 23.474-140.835 45.366-32.403 108.421-21.903 140.835 23.474 75.788 106.105 198.732 169.45 328.875 169.45 130.154 0 253.099-63.344 328.886-169.45 19.708-27.586 50.742-42.29 82.242-42.29 20.305 0 40.806 6.109 58.593 18.816 45.366 32.409 55.877 95.463 23.469 140.835z" />
<glyph unicode="&#xe94e;" glyph-name="cn-wifi-medium-signal" d="M665.396 192.334c0-84.719-68.679-153.398-153.398-153.398s-153.398 68.679-153.398 153.398c0 84.719 68.679 153.398 153.398 153.398s153.398-68.679 153.398-153.398zM511.998 601.404c-131.823 0-256.33-64.122-333.051-171.524-21.889-30.64-14.791-73.22 15.845-95.106 30.636-21.893 73.224-14.791 95.106 15.845 51.187 71.656 134.215 114.433 222.101 114.433s170.914-42.776 222.101-114.433c13.309-18.629 34.263-28.555 55.531-28.555 13.712 0 27.56 4.126 39.571 12.71 30.636 21.885 37.734 64.466 15.845 95.106-76.721 107.401-201.224 171.524-333.047 171.524zM1006.532 636.491c-125.978 140.178-306.23 220.574-494.534 220.574s-368.556-80.4-494.53-220.585c-25.168-28.004-22.869-71.109 5.142-96.278 13.020-11.704 29.312-17.471 45.545-17.471 18.673 0.004 37.268 7.627 50.732 22.61 100.156 111.446 243.439 175.372 393.11 175.372 149.675 0 292.962-63.919 393.118-175.368 25.172-28.004 68.281-30.303 96.281-5.139 28.004 25.172 30.303 68.281 5.135 96.285z" />
<glyph unicode="&#xe94f;" glyph-name="cn-wifi-full-signal" d="M628.124 157.683c0-64.135-51.992-116.127-116.127-116.127s-116.127 51.992-116.127 116.127c0 64.135 51.992 116.127 116.127 116.127s116.127-51.992 116.127-116.127zM512 467.358c-99.794 0-194.049-48.542-252.129-129.851-16.571-23.195-11.197-55.43 11.995-71.998 9.093-6.496 19.574-9.622 29.957-9.622 16.103 0 31.969 7.517 42.038 21.617 38.75 54.246 101.605 86.629 168.137 86.629 66.538 0 129.39-32.383 168.134-86.626 16.565-23.19 48.8-28.571 71.998-12.001 23.195 16.568 28.569 48.803 12.001 71.998-58.075 81.314-152.33 129.854-252.129 129.854zM512 660.901c-142.557 0-279.008-60.868-374.374-166.995-19.050-21.202-17.31-53.835 3.896-72.888 9.86-8.86 22.19-13.224 34.479-13.224 14.136 0.003 28.216 5.774 38.406 17.116 75.818 84.373 184.288 132.765 297.596 132.765s221.781-48.391 297.602-132.762c19.053-21.202 51.685-22.943 72.885-3.893 21.202 19.053 22.943 51.685 3.893 72.885-95.372 106.13-231.828 166.995-374.382 166.995zM1009.22 645.732c-132.121 134.592-308.704 208.714-497.22 208.714-188.508 0-365.091-74.122-497.218-208.72-19.968-20.343-19.666-53.017 0.674-72.986 10.047-9.862 23.103-14.782 36.153-14.78 13.366 0 26.73 5.163 36.833 15.454 112.561 114.663 262.983 177.809 423.557 177.809 160.583 0 311.004-63.146 423.555-177.803 19.971-20.343 52.648-20.643 72.989-0.677 20.341 19.968 20.643 52.645 0.677 72.989z" />
<glyph unicode="&#xe950;" glyph-name="cn-low-bright" d="M711.737 434.374c0 110.304-89.441 199.735-199.745 199.735s-199.745-89.431-199.745-199.735c0-110.323 89.441-199.745 199.745-199.745s199.745 89.426 199.745 199.745zM684.79 640.3c12.473-10.465 27.66-15.578 42.761-15.578 19 0 37.87 8.092 51.036 23.785l75.129 89.537c23.636 28.17 19.963 70.161-8.208 93.802-28.17 23.626-70.171 19.963-93.802-8.208l-75.129-89.537c-23.631-28.17-19.958-70.161 8.212-93.802zM1022.975 524.475c-6.383 36.21-40.922 60.409-77.132 54.006l-115.103-20.3c-36.21-6.383-60.389-40.917-54.006-77.132 5.695-32.301 33.783-55.032 65.492-55.032 3.837 0 7.731 0.332 11.64 1.025l115.103 20.3c36.214 6.383 60.394 40.917 54.006 77.132zM936.971 265.891l-101.23 58.44c-31.839 18.379-72.563 7.476-90.952-24.372-18.384-31.843-7.471-72.563 24.372-90.952l101.23-58.44c10.484-6.056 21.932-8.93 33.225-8.93 23.010 0 45.394 11.943 57.722 33.307 18.394 31.843 7.481 72.563-24.368 90.947zM689.276 141.974c-12.574 34.554-50.781 52.379-85.339 39.796-34.558-12.579-52.374-50.781-39.801-85.339l39.974-109.832c9.839-27.039 35.372-43.83 62.575-43.83 7.558 0 15.25 1.3 22.765 4.034 34.558 12.574 52.374 50.781 39.801 85.335l-39.974 109.837zM420.049 181.76c-34.554 12.574-72.761-5.242-85.339-39.796l-39.974-109.822c-12.579-34.554 5.237-72.761 39.796-85.335 7.519-2.734 15.202-4.034 22.765-4.034 27.193 0 52.731 16.791 62.57 43.83l39.974 109.822c12.583 34.549-5.233 72.761-39.791 85.335zM188.244 324.326l-101.225-58.435c-31.848-18.379-42.761-59.099-24.377-90.952 12.333-21.364 34.712-33.307 57.727-33.307 11.293 0 22.745 2.879 33.225 8.93l101.225 58.435c31.848 18.379 42.761 59.099 24.377 90.947-18.384 31.853-59.109 42.771-90.952 24.382zM170.12 427.043c3.914-0.693 7.803-1.025 11.64-1.025 31.699 0 59.792 22.731 65.492 55.032 6.388 36.21-17.792 70.744-54.006 77.132l-115.094 20.3c-36.219 6.426-70.744-17.792-77.127-54.006-6.388-36.21 17.792-70.744 54.006-77.132l115.089-20.3zM245.399 648.508c13.171-15.698 32.036-23.785 51.041-23.785 15.101 0 30.289 5.117 42.761 15.578 28.17 23.636 31.843 65.632 8.208 93.802l-75.12 89.527c-23.636 28.166-65.632 31.843-93.802 8.208-28.166-23.636-31.843-65.636-8.208-93.802l75.12-89.527zM511.993 703.192c36.773 0 66.585 29.807 66.585 66.58v116.879c0 36.773-29.812 66.58-66.585 66.58s-66.58-29.812-66.58-66.58v-116.875c0-36.773 29.807-66.585 66.58-66.585z" />
<glyph unicode="&#xe951;" glyph-name="cn-half-bright" d="M674.325 433.975c0 89.659-72.689 162.337-162.325 162.337s-162.325-72.677-162.325-162.337c0-89.636 72.689-162.321 162.325-162.321 89.64 0 162.325 72.685 162.325 162.321zM652.426 601.339c10.136-8.505 22.478-12.659 34.75-12.659 15.441 0 30.776 6.576 41.479 19.329l123.659 147.365c19.208 22.893 16.223 57.018-6.666 76.229-22.893 19.204-57.021 16.219-76.229-6.67l-123.659-147.365c-19.212-22.893-16.227-57.018 6.666-76.229zM1023.171 524.12c-5.191 29.43-33.229 49.104-62.682 43.893l-189.459-33.405c-29.43-5.187-49.080-33.252-43.889-62.678 4.628-26.254 27.454-44.726 53.223-44.726 3.118 0 6.279 0.27 9.459 0.833l189.459 33.405c29.426 5.183 49.080 33.248 43.889 62.678zM941.707 248.378l-166.605 96.181c-25.87 14.94-58.974 6.071-73.914-19.81-14.944-25.878-6.071-58.97 19.81-73.91l166.605-96.181c8.52-4.921 17.819-7.257 27.001-7.257 18.699 0 36.89 9.706 46.913 27.067 14.94 25.878 6.068 58.97-19.81 73.91zM656.068 196.364c-10.222 28.084-41.264 42.551-69.352 32.341-28.080-10.218-42.559-41.272-32.337-69.352l65.8-180.77c7.996-21.974 28.745-35.619 50.848-35.619 6.146 0 12.397 1.056 18.504 3.278 28.080 10.218 42.559 41.272 32.337 69.348l-65.8 180.774zM437.277 228.701c-28.080 10.214-59.13-4.264-69.348-32.341l-65.796-180.778c-10.218-28.084 4.26-59.13 32.341-69.352 6.111-2.222 12.358-3.278 18.5-3.278 22.103 0 42.852 13.645 50.848 35.615l65.796 180.778c10.222 28.088-4.256 59.138-32.341 69.356zM322.807 324.756c-14.94 25.882-48.036 34.739-73.914 19.807l-166.605-96.189c-25.882-14.94-34.746-48.032-19.807-73.917 10.023-17.362 28.21-27.063 46.913-27.063 9.178 0 18.484 2.343 27.001 7.257l166.605 96.189c25.882 14.944 34.75 48.036 19.807 73.917zM243.632 427.2c25.765 0 48.595 18.476 53.223 44.726 5.191 29.426-14.463 57.491-43.889 62.678l-189.455 33.405c-29.454 5.203-57.491-14.463-62.682-43.893-5.191-29.426 14.463-57.491 43.889-62.678l189.455-33.405c3.184-0.559 6.345-0.833 9.459-0.833zM295.345 608.009c10.703-12.757 26.034-19.329 41.479-19.329 12.272 0 24.614 4.158 34.75 12.659 22.893 19.208 25.878 53.336 6.67 76.229l-123.655 147.365c-19.208 22.897-53.332 25.882-76.229 6.67-22.889-19.208-25.878-53.34-6.67-76.229l123.655-147.365zM512 652.449c29.884 0 54.111 24.223 54.111 54.107v192.377c0 29.884-24.227 54.107-54.111 54.107s-54.107-24.223-54.107-54.107v-192.377c0-29.88 24.227-54.107 54.107-54.107z" />
<glyph unicode="&#xe952;" glyph-name="cn-full-bright" d="M648.715 433.717c0 75.514-61.218 136.718-136.715 136.718-75.494 0-136.715-61.204-136.715-136.718 0-75.494 61.221-136.711 136.715-136.711 75.497 0 136.715 61.218 136.715 136.711zM682.991 637.514c8.54-7.17 18.935-10.665 29.271-10.665 13.005 0 25.92 5.542 34.932 16.28l104.149 124.109c16.178 19.278 13.664 48.022-5.614 64.199-19.285 16.187-48.025 13.667-64.203-5.614l-104.149-124.109c-16.178-19.278-13.667-48.022 5.614-64.199zM1023.298 523.873c-4.369 24.787-27.993 41.343-52.789 36.968l-159.558-28.128c-24.787-4.369-41.337-28.003-36.968-52.793 3.898-22.111 23.123-37.67 44.826-37.67 2.626 0 5.288 0.227 7.967 0.702l159.558 28.128c24.787 4.369 41.333 28.006 36.964 52.793zM944.954 236.378l-140.313 81.019c-21.792 12.589-49.669 5.117-62.252-16.678-12.586-21.795-5.117-49.666 16.678-62.252l140.313-81.019c7.179-4.148 15.011-6.115 22.744-6.115 15.746 0 31.067 8.174 39.508 22.793 12.586 21.795 5.117 49.666-16.678 62.252zM661.403 156.512c-8.606 23.65-34.754 35.854-58.41 27.238-23.653-8.606-35.848-34.76-27.241-58.407l55.409-152.26c6.735-18.507 24.21-29.996 42.829-29.996 5.173 0 10.438 0.89 15.581 2.761 23.65 8.606 35.848 34.757 27.241 58.407l-55.409 152.256zM421.027 183.743c-23.653 8.599-49.801-3.581-58.414-27.235l-55.425-152.25c-8.609-23.65 3.585-49.801 27.235-58.414 5.146-1.871 10.408-2.761 15.584-2.761 18.612 0 36.088 11.489 42.826 29.993l55.425 152.25c8.613 23.653-3.581 49.808-27.232 58.417zM219.368 317.387l-140.316-81.006c-21.795-12.583-29.264-40.454-16.682-62.252 8.441-14.622 23.759-22.797 39.508-22.797 7.733 0 15.568 1.97 22.744 6.112l140.316 81.006c21.795 12.583 29.264 40.454 16.682 62.252-12.586 21.795-40.457 29.271-62.252 16.685zM205.194 442.247c21.7 0 40.928 15.558 44.826 37.67 4.372 24.787-12.178 48.42-36.964 52.793l-159.564 28.134c-24.807 4.399-48.42-12.174-52.793-36.968-4.372-24.784 12.181-48.424 36.964-52.789l159.561-28.134c2.682-0.478 5.344-0.705 7.97-0.705zM276.8 643.122c9.015-10.741 21.927-16.28 34.935-16.28 10.336 0 20.731 3.502 29.268 10.662 19.281 16.178 21.798 44.921 5.618 64.203l-104.142 124.122c-16.178 19.278-44.921 21.789-64.203 5.618-19.281-16.178-21.798-44.921-5.621-64.203l104.146-124.122zM512 699.746c25.166 0 45.574 20.401 45.574 45.57v162.025c0 25.169-20.405 45.57-45.574 45.57-25.166 0-45.574-20.401-45.574-45.57v-162.025c0-25.166 20.408-45.57 45.574-45.57z" />
<glyph unicode="&#xe953;" glyph-name="cn-contrast" d="M1023.519 806.095c0 18.58-9.17 35.924-24.532 46.396-9.364 6.378-20.297 9.742-31.616 9.742-7.060 0-13.968-1.309-20.531-3.888l-911.13-357.9c-25.442-9.995-40.256-37.312-34.456-63.539 4.978-22.507 21.53-36.125 35.449-41.416l910.606-357.827c6.576-2.585 13.487-3.897 20.54-3.897 0.006 0 0 0 0.006 0 11.316 0 22.257 3.373 31.625 9.754 15.353 10.467 24.522 27.81 24.522 46.39l-0.484 716.183zM939.783 124.556l-734.526 288.637h734.526v-288.637z" />
<glyph unicode="&#xe954;" glyph-name="cn-brightness" d="M512.002 960c-282.322 0-512.002-229.68-512.002-511.998s229.68-511.998 512.002-511.998c282.319 0 511.998 229.677 511.998 511.998s-229.68 511.998-511.998 511.998zM512.002 46.701v802.598c221.276 0 401.298-180.022 401.298-401.298s-180.022-401.301-401.298-401.301z" />
<glyph unicode="&#xe955;" glyph-name="cn-wireless-signal" d="M615.959 508.108c0 57.417-46.546 103.963-103.958 103.963-57.417 0-103.963-46.546-103.963-103.963 0-43.623 26.886-80.95 64.977-96.37v-432.498h77.968v432.498c38.096 15.423 64.977 52.75 64.977 96.37zM384.709 235.111c-7.334 0-14.778 1.559-21.867 4.851-105.167 48.855-173.117 155.279-173.117 271.131 0 115.858 67.95 222.282 173.117 271.137 26.027 12.086 56.947 0.792 69.041-25.243s0.792-56.947-25.243-69.041c-68.618-31.875-112.958-101.294-112.958-176.852 0-75.555 44.339-144.974 112.958-176.846 26.035-12.095 37.338-43.006 25.243-69.041-8.8-18.949-27.574-30.094-47.175-30.094zM640.058 235.458c-19.541 0-38.259 11.071-47.101 29.931-12.185 25.996-0.989 56.944 25.004 69.126 68.252 31.994 112.354 101.3 112.354 176.576 0 75.279-44.1 144.591-112.352 176.579-25.996 12.182-37.191 43.133-25.006 69.123 12.179 25.996 43.13 37.188 69.123 25.006 104.603-49.024 172.193-155.287 172.193-270.711 0-115.418-67.587-221.679-172.19-270.708-7.131-3.34-14.64-4.921-22.024-4.921zM277.791 105.428c-7.334 0-14.778 1.559-21.867 4.851-75.332 34.996-139.156 90.347-184.575 160.070-46.679 71.654-71.35 154.901-71.35 240.744s24.671 169.092 71.347 240.747c45.419 69.726 109.245 125.077 184.575 160.073 26.027 12.095 56.944 0.792 69.041-25.243 12.095-26.035 0.792-56.947-25.243-69.041-118.922-55.244-195.765-175.564-195.765-306.535 0-130.968 76.843-251.285 195.765-306.529 26.035-12.095 37.338-43.006 25.243-69.041-8.802-18.949-27.571-30.094-47.172-30.094zM747.421 105.978c-19.538 0-38.257 11.071-47.099 29.933-12.185 25.993-0.989 56.941 25.006 69.123 118.282 55.442 194.713 175.572 194.713 306.056s-76.432 250.617-194.713 306.053c-25.996 12.185-37.191 43.133-25.006 69.126 12.179 25.987 43.133 37.183 69.123 25.009 74.969-35.136 138.46-90.485 183.617-160.062 46.408-71.51 70.938-154.546 70.938-240.126s-24.53-168.613-70.938-240.126c-45.157-69.577-108.648-124.922-183.617-160.059-7.131-3.343-14.637-4.927-22.024-4.927z" />
<glyph unicode="&#xe956;" glyph-name="cn-battery-charging" d="M995.607 535.279h-54.661v112.117c0 15.682-12.711 28.393-28.386 28.393h-884.18c-15.675 0-28.38-12.711-28.38-28.393v-398.798c0-15.675 12.705-28.386 28.38-28.386h884.183c15.675 0 28.386 12.711 28.386 28.386v112.123h54.661c15.675 0 28.393 12.711 28.393 28.386v117.788c-0.003 15.679-12.72 28.383-28.396 28.383zM862.56 291.096h-777.776v313.814h777.776v-313.814zM238.872 431.584l249.16-92.627c1.795-0.668 3.666-1.007 5.575-1.007 4.414 0 8.555 1.786 11.723 5.079 3.122 3.282 4.839 7.665 4.839 12.348v75.203h183.713c8.49 0 15.574 6.686 16.485 15.715 0.72 8.013-3.771 15.463-10.922 18.123l-249.114 92.612c-5.988 2.247-12.914 0.591-17.233-3.953-3.18-3.282-4.935-7.702-4.935-12.452v-75.21h-183.722c-8.518 0-15.595-6.705-16.494-15.872-0.043-0.526-0.068-1.016-0.068-1.548-0.003-7.373 4.418-13.964 10.993-16.411z" />
<glyph unicode="&#xe957;" glyph-name="cn-empty-battery" d="M995.617 535.277h-54.664v112.124c0 15.676-12.708 28.386-28.386 28.386h-884.179c-15.676 0-28.386-12.711-28.386-28.386v-398.805c0-15.676 12.711-28.386 28.386-28.386h884.179c15.679 0 28.386 12.711 28.386 28.386v112.124h54.664c15.676 0 28.383 12.705 28.383 28.386v117.782c0 15.682-12.708 28.39-28.383 28.39zM862.569 291.088h-777.779v313.818h777.779v-313.818z" />
<glyph unicode="&#xe958;" glyph-name="cn-per-battery" d="M995.614 535.279h-54.667v112.117c0 15.682-12.705 28.393-28.38 28.393h-884.18c-15.675 0-28.386-12.711-28.386-28.393v-398.798c0-15.675 12.711-28.386 28.386-28.386h884.183c15.675 0 28.38 12.711 28.38 28.386v112.123h54.667c15.675 0 28.386 12.711 28.386 28.386v117.788c-0.003 15.679-12.714 28.383-28.389 28.383zM862.566 291.096h-522.302l255.474 313.814h266.828v-313.814z" />
<glyph unicode="&#xe959;" glyph-name="cn-per-battery1" d="M995.614 535.279h-54.661v112.117c0 15.682-12.711 28.393-28.393 28.393h-884.174c-15.675 0-28.386-12.711-28.386-28.393v-398.798c0-15.675 12.711-28.386 28.386-28.386h884.177c15.682 0 28.393 12.711 28.393 28.386v112.123h54.661c15.675 0 28.386 12.711 28.386 28.386v117.788c-0.003 15.679-12.714 28.383-28.389 28.383zM862.566 291.096h-266.825l255.474 313.814h11.353v-313.814z" />
<glyph unicode="&#xe95a;" glyph-name="cn-full-battery" d="M995.614 535.278h-54.661v112.116c0 15.682-12.711 28.392-28.386 28.392h-884.175c-15.682 0-28.392-12.711-28.392-28.392v-398.795c0-15.675 12.711-28.386 28.392-28.386h884.178c15.675 0 28.386 12.711 28.386 28.386v112.123h54.661c15.675 0 28.386 12.711 28.386 28.386v117.787c-0.003 15.678-12.714 28.383-28.389 28.383z" />
<glyph unicode="&#xe95b;" glyph-name="cn-mute-volume" d="M583.146 798.752c-8.228 5.404-18.62 6.307-27.671 2.379l-357.719-155.008c-1.927 8.718-9.704 15.252-19.011 15.252h-159.247c-10.78 0-19.498-8.724-19.498-19.491v-387.779c0-10.764 8.718-19.485 19.498-19.485h159.247c9.304 0 17.084 6.528 19.011 15.246l357.719-155.008c3.72-1.614 7.677-2.408 11.631-2.408 5.603 0 11.199 1.62 16.040 4.79 8.222 5.404 13.187 14.593 13.187 24.434v652.642c0 9.848-4.966 19.037-13.187 24.434zM927.415 447.997l79.29 79.29c23.061 23.058 23.061 60.439 0 83.497-23.051 23.061-60.443 23.061-83.497 0l-79.29-79.29-79.29 79.29c-23.055 23.061-60.439 23.061-83.494 0-23.058-23.058-23.058-60.439 0-83.497l79.29-79.29-79.29-79.29c-23.058-23.058-23.058-60.439 0-83.497 11.529-11.532 26.637-17.292 41.749-17.292s30.22 5.763 41.745 17.292l79.29 79.29 79.29-79.29c11.532-11.532 26.64-17.292 41.752-17.292s30.223 5.763 41.745 17.292c23.061 23.058 23.061 60.439 0 83.497l-79.29 79.29z" />
<glyph unicode="&#xe95c;" glyph-name="cn-medium-volume" d="M622.302 822.306c-8.781 5.771-19.871 6.731-29.529 2.539l-381.745-165.416c-2.050 9.303-10.356 16.276-20.281 16.276h-169.946c-11.497-0.003-20.8-9.31-20.8-20.8v-413.817c0-11.486 9.303-20.793 20.8-20.793h169.946c9.922 0 18.231 6.966 20.281 16.27l381.745-165.419c3.963-1.722 8.193-2.569 12.412-2.569 5.972 0 11.944 1.729 17.117 5.111 8.774 5.767 14.066 15.573 14.066 26.075v696.468c0 10.509-5.292 20.311-14.066 26.075zM821.344 124.543c-20.387 0-40.384 9.874-52.519 28.118-19.273 28.972-11.404 68.085 17.571 87.355 69.875 46.475 111.592 124.219 111.592 207.976 0 83.76-41.716 161.507-111.592 207.979-28.972 19.273-36.841 58.382-17.571 87.355 19.273 28.972 58.382 36.837 87.355 17.571 105.083-69.889 167.818-186.862 167.818-312.905s-62.735-243.013-167.818-312.902c-10.725-7.134-22.847-10.547-34.835-10.547z" />
<glyph unicode="&#xe95d;" glyph-name="cn-high-volume" d="M488.945 742.093c-6.899 4.531-15.612 5.286-23.201 1.994l-299.93-129.967c-1.616 7.315-8.142 12.791-15.934 12.791h-133.531c-9.033 0-16.348-7.315-16.348-16.342v-325.137c0-9.022 7.315-16.334 16.348-16.334h133.531c7.79 0 14.318 5.468 15.934 12.783l299.93-129.967c3.119-1.353 6.437-2.019 9.747-2.019 4.703 0 9.39 1.358 13.454 4.016 6.893 4.531 11.052 12.23 11.052 20.484v547.207c0 8.26-4.158 15.959-11.052 20.49zM672.704 693.85c-22.763 15.14-53.494 8.966-68.634-13.806-15.143-22.763-8.96-53.494 13.806-68.634 54.903-36.518 87.682-97.604 87.682-163.409 0-65.807-32.779-126.893-87.682-163.411-22.763-15.143-28.946-45.871-13.806-68.634 9.532-14.337 25.247-22.092 41.264-22.092 9.419 0 18.944 2.682 27.37 8.289 82.569 54.914 131.859 146.822 131.859 245.851 0 99.024-49.293 190.931-131.859 245.846zM828.642 812.214c-22.763 15.143-53.494 8.963-68.634-13.803-15.143-22.766-8.96-53.494 13.806-68.634 94.664-62.962 151.179-168.297 151.179-281.773 0-113.482-56.517-218.817-151.179-281.776-22.763-15.143-28.946-45.871-13.806-68.634 9.535-14.337 25.247-22.092 41.264-22.092 9.419 0 18.944 2.682 27.37 8.289 122.324 81.358 195.355 217.509 195.355 364.216 0.003 146.693-73.026 282.847-195.355 364.208z" />
<glyph unicode="&#xe95e;" glyph-name="cn-joystick" d="M815.789 562.471h-607.583c-114.805 0-208.206-93.412-208.206-208.217v-127.12c0-114.802 93.401-208.214 208.206-208.214h78.673c58.641 0 98.349 60.515 140.39 124.583 17.768 27.1 36.16 55.127 53.869 75.148 19.75 22.313 41.972 22.313 61.728 0 17.703-20.018 36.095-48.049 53.863-75.148 42.046-64.069 81.749-124.583 140.39-124.583h78.673c114.805 0 208.211 93.412 208.211 208.214v127.12c-0.003 114.805-93.406 208.217-208.214 208.217zM340.258 302.703c0-9.428-7.648-17.074-17.079-17.074h-46.109v-46.109c0-9.428-7.643-17.074-17.074-17.074h-49.532c-9.434 0-17.074 7.646-17.074 17.074v46.109h-46.109c-9.437 0-17.079 7.646-17.079 17.074v49.532c0 9.434 7.643 17.076 17.079 17.076h46.109v46.107c0 9.434 7.643 17.079 17.074 17.079h49.532c9.434 0 17.074-7.648 17.074-17.079v-46.107h46.109c9.434 0 17.079-7.646 17.079-17.076v-49.532zM700.149 309.739c-28.999 0-52.511 23.509-52.511 52.511s23.515 52.511 52.511 52.511c29.005 0 52.513-23.509 52.513-52.511s-23.512-52.511-52.513-52.511zM792.715 217.178c-29.005 0-52.511 23.509-52.511 52.511 0 28.999 23.509 52.511 52.511 52.511 29.005 0 52.511-23.515 52.511-52.511 0-29.002-23.509-52.511-52.511-52.511zM823.357 343.208c-28.999 0-52.511 23.509-52.511 52.513 0 29.002 23.515 52.511 52.511 52.511 29.010 0 52.516-23.512 52.516-52.511 0.003-29.007-23.506-52.513-52.516-52.513zM551.382 701.334c0 53.476 43.504 96.983 96.98 96.983h114.327v78.767h-114.327c-96.906 0-175.747-78.841-175.747-175.75v-100.004h78.767v100.004z" />
<glyph unicode="&#xe95f;" glyph-name="cn-keyboard" d="M999.956 648.774h-975.905c-13.298 0-24.051-10.753-24.051-24.025v-638.663c0-13.279 10.753-24.041 24.051-24.041h975.905c13.291 0 24.044 10.763 24.044 24.041v638.663c0 13.272-10.75 24.025-24.044 24.025zM560.666 530.157c0 13.279 10.782 24.041 24.044 24.041h70.928c13.257 0 24.013-10.766 24.013-24.041v-70.902c0-13.282-10.759-24.048-24.013-24.048h-70.928c-13.263 0-24.044 10.769-24.044 24.048v70.902zM560.666 340.86c0 13.282 10.782 24.048 24.044 24.048h70.928c13.257 0 24.013-10.769 24.013-24.048v-70.905c0-13.282-10.759-24.038-24.013-24.038h-70.928c-13.263 0-24.044 10.759-24.044 24.038v70.905zM344.349 530.157c0 13.279 10.759 24.041 24.013 24.041h70.928c13.263 0 24.044-10.766 24.044-24.041v-70.902c0-13.282-10.782-24.048-24.044-24.048h-70.928c-13.257 0-24.013 10.769-24.013 24.048v70.902zM344.349 340.86c0 13.282 10.759 24.048 24.013 24.048h70.928c13.263 0 24.044-10.769 24.044-24.048v-70.905c0-13.282-10.782-24.038-24.044-24.038h-70.928c-13.257 0-24.013 10.759-24.013 24.038v70.905zM128.009 530.157c0 13.279 10.747 24.041 24.044 24.041h70.896c13.291 0 24.038-10.766 24.038-24.041v-70.902c0-13.282-10.747-24.048-24.038-24.048h-70.896c-13.298 0-24.044 10.769-24.044 24.048v70.902zM152.053 245.916c-13.298 0-24.044 10.759-24.044 24.038v70.905c0 13.282 10.747 24.048 24.044 24.048h70.896c13.291 0 24.038-10.769 24.038-24.048v-70.905c0-13.282-10.747-24.038-24.038-24.038h-70.896zM798.643 86.67c0-13.279-10.766-24.044-24.025-24.044h-525.231c-13.257 0-24.025 10.769-24.025 24.044v70.912c0 13.272 10.772 24.029 24.025 24.029h525.231c13.263 0 24.025-10.759 24.025-24.029v-70.912zM895.994 269.954c0-13.282-10.747-24.038-24.044-24.038h-70.896c-13.288 0-24.044 10.759-24.044 24.038v70.905c0 13.282 10.759 24.048 24.044 24.048h70.896c13.298 0 24.044-10.769 24.044-24.048v-70.905zM895.994 459.258c0-13.282-10.747-24.048-24.044-24.048h-70.896c-13.288 0-24.044 10.769-24.044 24.048v70.902c0 13.279 10.759 24.041 24.044 24.041h70.896c13.298 0 24.044-10.766 24.044-24.041v-70.902zM556.059 765.236c0 44.634 36.324 80.951 80.97 80.951h104.643v87.77h-104.643c-93.043 0-168.74-75.687-168.74-168.721v-91.564h87.77v91.564z" />
<glyph unicode="&#xe960;" glyph-name="cn-mouse-2" d="M426.668 627.209v132.935c0 47.125 38.202 85.341 85.331 85.341s85.331-38.216 85.331-85.341v-132.935h256.003v7.693c0 179.542-145.535 325.099-325.102 325.099h-32.466c-179.56 0-325.095-145.556-325.095-325.102v-7.693h255.999zM170.668 505.46v-244.362c0-179.553 145.539-325.102 325.095-325.102h32.466c179.567 0 325.102 145.549 325.102 325.102v244.362h-682.663z" />
<glyph unicode="&#xe961;" glyph-name="cn-mouse" d="M524.392 717.662h-24.79c-137.060 0-248.162-111.108-248.162-248.162v-285.34c0-137.054 111.1-248.159 248.162-248.159h24.79c137.063 0 248.165 111.105 248.165 248.159v285.34c0 137.054-111.1 248.162-248.165 248.162zM577.138 461.845c0-35.969-29.167-65.136-65.142-65.136-35.969 0-65.136 29.164-65.136 65.136v103.261c0 35.969 29.167 65.136 65.136 65.136 35.974 0 65.142-29.164 65.142-65.136v-103.261zM551.081 758.205h-78.168v68.843c0 73.308 59.643 132.951 132.957 132.951h78.7v-78.166h-78.7c-30.21 0-54.788-24.575-54.788-54.785v-68.843z" />
<glyph unicode="&#xe962;" glyph-name="cn-radio" d="M999.961 628.375h-975.923c-13.278 0-24.039-10.764-24.039-24.039v-591.328c0-13.272 10.761-24.033 24.039-24.033h975.923c13.278 0 24.039 10.761 24.039 24.033v591.326c0 13.275-10.758 24.041-24.039 24.041zM460.719 180.273c0-13.281-10.764-24.041-24.036-24.041h-296.464c-13.275 0-24.039 10.761-24.039 24.041v70.504c0 13.275 10.764 24.041 24.039 24.041h296.462c13.275 0 24.036-10.766 24.036-24.041v-70.504zM460.719 366.564c0-13.278-10.764-24.033-24.036-24.033h-296.464c-13.275 0-24.039 10.755-24.039 24.033v70.513c0 13.272 10.764 24.036 24.039 24.036h296.462c13.275 0 24.036-10.764 24.036-24.036v-70.513zM725.129 140.41c-92.928 0-168.256 75.328-168.256 168.261s75.331 168.259 168.256 168.259c92.937 0 168.267-75.325 168.267-168.259s-75.331-168.261-168.267-168.261zM743.618 680.831h170.81l-218.5 218.503c-10.254 10.254-26.88 10.254-37.131 0l-48.274-48.274c-10.257-10.257-10.257-26.878 0-37.129l133.095-133.101z" />
<glyph unicode="&#xe963;" glyph-name="cn-projector" d="M1001.316 596.534h-126.672c-32.965 83.506-114.474 142.741-209.558 142.741s-176.59-59.235-209.555-142.741h-432.85c-12.525 0-22.681-10.154-22.681-22.684v-345.862c0-12.527 10.156-22.679 22.681-22.679h54.587v-25.906c0-12.53 10.154-22.681 22.684-22.681h128.526c12.525 0 22.679 10.151 22.679 22.681v25.906h521.684v-25.906c0-12.53 10.154-22.681 22.681-22.681h128.526c12.525 0 22.684 10.151 22.684 22.681v25.906h54.587c12.525 0 22.681 10.151 22.681 22.679v345.864c0 12.527-10.156 22.681-22.684 22.681zM380.042 332.759c0-12.53-10.156-22.681-22.681-22.681h-225.3c-12.527 0-22.679 10.151-22.679 22.681v25.704c0 12.527 10.151 22.684 22.679 22.684h225.298c12.525 0 22.681-10.156 22.681-22.684v-25.704zM380.042 454.602c0-12.53-10.156-22.684-22.681-22.684h-225.3c-12.527 0-22.679 10.154-22.679 22.684v25.704c0 12.527 10.151 22.679 22.679 22.679h225.298c12.525 0 22.681-10.151 22.681-22.679v-25.704zM665.087 376.38c-75.935 0-137.711 61.779-137.711 137.716 0 75.932 61.776 137.709 137.711 137.709 75.937 0 137.714-61.776 137.714-137.709 0-75.935-61.776-137.716-137.714-137.716z" />
<glyph unicode="&#xe964;" glyph-name="cn-wifi" d="M998.902 417.463h-973.803c-13.86 0-25.098-11.233-25.098-25.096v-391.533c0-13.862 11.239-25.101 25.098-25.101h973.803c13.86 0 25.098 11.239 25.098 25.101v391.533c0 13.862-11.239 25.096-25.098 25.096zM245.962 96.207c-55.444 0-100.391 44.949-100.391 100.396s44.946 100.391 100.391 100.391 100.393-44.944 100.393-100.391-44.952-100.396-100.393-100.396zM512 96.207c-55.444 0-100.393 44.949-100.393 100.396s44.949 100.391 100.393 100.391c55.444 0 100.393-44.944 100.393-100.391s-44.946-100.396-100.393-100.396zM899.347 895.165c0 13.86-11.233 25.098-25.096 25.098h-65.257c-13.86 0-25.098-11.239-25.098-25.098v-404.081h115.451v404.081z" />
<glyph unicode="&#xe965;" glyph-name="cn-loud-speaker" d="M918.209 378.988l-252.92 573.764c-1.575 3.576-4.775 6.176-8.599 6.986-3.824 0.804-7.801-0.272-10.694-2.896l-310.48-282.328 47.581-107.919c9.961-22.6-0.29-48.991-22.883-58.955l-3.203-1.415c-22.606-9.955-49 0.284-58.955 22.877l-45.906 104.122-140.143-61.774c-2.949-1.303-5.26-3.717-6.427-6.723-1.167-3.008-1.090-6.35 0.207-9.299l133.763-303.447 26.542-304.881c0.298-3.443 2.051-6.598 4.817-8.67 2.119-1.59 4.681-2.429 7.29-2.429 0.798 0 1.587 0.077 2.379 0.233 5.934 1.185 145.338 30.303 153.772 143.917 4.701 63.231 0.168 155.509-4.382 221.042l47.33 20.865 430.92 39.931c3.892 0.361 7.37 2.571 9.353 5.94 1.98 3.369 2.222 7.482 0.641 11.061z" />
<glyph unicode="&#xe966;" glyph-name="cn-paint-brush1" d="M141.326 617.268l-70.17-70.173c-9.060-9.054-9.060-23.747 0-32.825l174.426-174.426-217.082-217.089c-37.998-38.001-38.005-99.608 0-137.615l20.64-20.634c38.005-38.005 99.611-37.998 137.609 0l217.089 217.079 174.429-174.429c9.075-9.057 23.771-9.057 32.828 0l70.176 70.176-539.945 539.936zM1017.198 446.087l-137.038 137.038-187.546-162.645 162.63 187.57-169.293 169.296-213.917-185.503 185.497 213.917-147.446 147.437c-9.057 9.063-23.75 9.063-32.825 0l-282.594-282.591 539.945-539.936 282.588 282.591c9.069 9.072 9.069 23.762 0 32.825z" />
</font>
</defs>
</svg>
